<svg width="160" height="24" viewBox="0 0 160 24" fill="none" xmlns="http://www.w3.org/2000/svg">
<path d="M7.46 21.83C7.37 18.71 7.37 15.53 7.37 11.99H9.02C13.04 11.99 14.87 13.58 14.87 16.91C14.87 20.12 12.86 21.83 9.32 21.83H7.46ZM9.23 1.91C12.47 1.91 13.88 3.41 13.88 6.17C13.88 9.2 12.23 10.85 8.78 10.85H7.37C7.37 7.79 7.37 4.82 7.46 1.91H9.23ZM0.35 0.739999V1.82L3.2 2.09C3.26 5.06 3.26 8.06 3.26 11.06V12.35C3.26 15.5 3.26 18.62 3.2 21.68L0.35 21.95V23H9.62C16.94 23 19.16 19.85 19.16 16.88C19.16 13.88 17.12 11.81 12.14 11.21C16.46 10.37 17.93 8.3 17.93 6.02C17.93 2.96 15.68 0.739999 10.37 0.739999H0.35ZM29.8095 21.23C26.7795 21.23 24.7695 19.1 24.7695 16.22C24.7695 14.63 25.3395 13.01 27.0195 11.6C27.9495 12.71 28.8795 13.85 30.4695 15.74C31.5495 17 32.7195 18.38 34.0095 19.79C32.8695 20.72 31.4895 21.23 29.8095 21.23ZM29.8095 1.52C31.4295 1.52 32.4195 2.63 32.4195 4.55C32.4195 6.47 31.3695 8 29.6895 9.53C29.2395 8.99 28.8495 8.54 28.4595 8.03C27.3495 6.56 27.0495 5.54 27.0495 4.43C27.0495 2.72 28.2495 1.52 29.8095 1.52ZM43.2495 9.71V8.75H36.2595V9.71L38.9895 10.07C38.5695 12.77 37.8495 14.99 36.6195 17.12C35.4495 15.89 34.2795 14.63 32.8695 13.04C31.6995 11.78 30.8895 10.88 30.2595 10.16C33.5895 8.57 35.2395 6.95 35.2395 4.61C35.2395 2.09 33.3495 0.319999 29.8395 0.319999C26.3895 0.319999 24.0195 2.27 24.0195 5.36C24.0195 7.04 24.5895 8.66 26.0895 10.52L26.4795 10.97C22.8495 12.65 21.2895 14.81 21.2895 17.51C21.2895 20.72 23.7795 23.48 28.1895 23.48C31.1295 23.48 33.2295 22.16 34.6395 20.48C35.0595 20.96 35.5095 21.41 35.9895 21.89C37.2195 23.03 38.4795 23.45 40.2495 23.45C41.1495 23.45 41.8395 23.3 43.0695 23.03L43.0995 22.1L41.2095 21.89C39.6795 20.3 38.4195 19.01 37.2495 17.78C39.0495 15.32 39.9795 13.22 40.8195 10.07L43.2495 9.71ZM59.5201 2L60.7501 6.95H62.4301L62.2501 0.739999H43.2001L42.9901 6.95H44.6701L45.9301 2H50.5801C50.6101 5.03 50.6101 8.12 50.6101 11.15V12.62C50.6101 15.68 50.6101 18.71 50.5801 21.68L47.3701 21.95V23H58.0801V21.95L54.8701 21.68C54.8101 18.65 54.8101 15.62 54.8101 12.62V11.15C54.8101 8.06 54.8101 5 54.8701 2H59.5201ZM67.3271 14.69L70.5071 4.4L73.8071 14.69H67.3271ZM80.3471 21.68L73.1771 0.649998H70.5671L63.7271 21.59L61.1471 21.95V23H68.1671V21.95L65.2271 21.59L66.9971 15.8H74.1671L76.0571 21.62L73.1471 21.95V23H82.8371V21.95L80.3471 21.68ZM94.3641 1.82V0.739999H84.3441V1.82L87.1941 2.09C87.2541 5.12 87.2541 8.15 87.2541 11.15V12.62C87.2541 15.68 87.2541 18.71 87.1941 21.68L84.3441 21.95V23H94.3641V21.95L91.5141 21.68C91.4241 18.68 91.4241 15.62 91.4241 12.62V11.15C91.4241 8.09 91.4241 5.09 91.5141 2.09L94.3641 1.82ZM112.33 16.52L111.04 21.77H104.2C104.11 18.74 104.11 15.71 104.11 12.92V10.91C104.11 8.09 104.11 5.09 104.2 2.12L107.2 1.82V0.739999H97.0297V1.82L99.8797 2.09C99.9397 5.12 99.9397 8.15 99.9397 11.15V13.16C99.9397 15.74 99.9397 18.71 99.8797 21.68L97.0597 21.95L97.0297 23H113.89L113.95 16.52H112.33ZM120.691 11.87C120.691 6.11 122.551 1.43 126.571 1.43C130.591 1.43 132.481 6.11 132.481 11.87C132.481 17.72 130.591 22.34 126.571 22.34C122.551 22.34 120.691 17.72 120.691 11.87ZM126.571 0.199998C121.141 0.199998 116.191 4.37 116.191 11.87C116.191 19.52 121.111 23.57 126.571 23.57C132.031 23.57 136.921 19.4 136.921 11.87C136.921 4.28 132.031 0.199998 126.571 0.199998ZM146.237 11.42C146.237 7.97 146.237 4.94 146.327 1.91H148.517C151.727 1.91 153.347 3.56 153.347 6.47C153.347 9.26 151.847 11.42 148.427 11.42H146.237ZM157.337 21.74L156.107 16.7C155.507 13.91 154.457 12.44 151.217 11.99C155.597 11.3 157.367 8.99 157.367 6.44C157.367 2.87 154.487 0.739999 149.357 0.739999H139.217V1.82L142.067 2.09C142.127 5.12 142.127 8.15 142.127 11.15V12.62C142.127 15.68 142.127 18.71 142.067 21.68L139.217 21.95V23H149.237V21.95L146.327 21.68C146.237 18.71 146.237 15.68 146.237 12.53H147.887C150.377 12.53 151.217 13.55 151.727 16.04L152.807 20.66C153.137 22.7 154.427 23.39 156.857 23.39C158.177 23.39 159.017 23.27 159.977 23V21.95L157.337 21.74Z" fill="#1D1D1D"/>
</svg>
