<svg width="45" height="46" viewBox="0 0 45 46" fill="none" xmlns="http://www.w3.org/2000/svg">
<path d="M13.7857 2.28592C11.5476 2.38116 10.0238 2.7383 8.69048 3.26211C7.33333 3.80973 6.16667 4.52402 5 5.69069C3.83333 6.85735 3.11905 8.02402 2.59524 9.40497C2.07143 10.7383 1.7381 12.2621 1.61905 14.5002C1.52381 16.7383 1.5 17.4526 1.5 23.1431C1.52381 28.8335 1.54762 29.5478 1.64286 31.7859C1.7381 34.024 2.09524 35.5478 2.61905 36.8573C3.16667 38.2383 3.88095 39.405 5.04762 40.5716C6.21429 41.7383 7.38095 42.4526 8.7619 42.9764C10.0952 43.5002 11.619 43.8335 13.8571 43.9526C16.0952 44.0478 16.8095 44.0716 22.5 44.0716C28.1905 44.0478 28.9048 44.0478 31.1429 43.9288C33.381 43.8335 34.9048 43.4764 36.2381 42.9526C37.619 42.405 38.7857 41.6907 39.9524 40.524C41.119 39.3573 41.8333 38.1907 42.3571 36.8097C42.881 35.4764 43.2143 33.9526 43.3333 31.7145C43.4286 29.4764 43.4524 28.7621 43.4524 23.0716C43.4286 17.3812 43.4286 16.6669 43.3095 14.4288C43.2143 12.1907 42.8571 10.6669 42.3333 9.33354C41.7857 7.95259 41.0714 6.78592 39.9048 5.61926C38.7381 4.45259 37.5714 3.7383 36.1905 3.21449C34.8571 2.69069 33.3333 2.35735 31.0952 2.2383C28.8333 2.16688 28.119 2.14307 22.4286 2.14307C16.7381 2.16688 16.0238 2.19069 13.7857 2.28592ZM14.0238 40.1669C11.9762 40.0716 10.881 39.7383 10.1429 39.4526C9.16667 39.0716 8.47619 38.6193 7.7381 37.8812C7 37.1431 6.54762 36.4526 6.16667 35.4764C5.88095 34.7383 5.52381 33.6193 5.42857 31.5954C5.33333 29.3812 5.30952 28.7145 5.28571 23.1193C5.28571 17.524 5.28571 16.8574 5.38095 14.6431C5.47619 12.5954 5.80952 11.5002 6.09524 10.7621C6.47619 9.78592 6.92857 9.09545 7.66667 8.35735C8.40476 7.61926 9.09524 7.16688 10.0714 6.78592C10.8095 6.50021 11.9286 6.16688 13.9524 6.04783C16.1667 5.95259 16.8333 5.92878 22.4048 5.90497C28 5.90497 28.6667 5.90497 30.881 6.00021C32.9286 6.09545 34.0238 6.42878 34.7619 6.71449C35.7381 7.09545 36.4524 7.54783 37.1667 8.28592C37.9048 9.02402 38.3571 9.71449 38.7381 10.6907C39.0238 11.4288 39.3571 12.5478 39.4762 14.5716C39.5714 16.7859 39.5952 17.4526 39.619 23.024C39.6429 28.6193 39.619 29.2859 39.5238 31.5002C39.4286 33.5478 39.0952 34.6431 38.8095 35.405C38.4286 36.3812 37.9762 37.0716 37.2381 37.8097C36.5 38.5478 35.8095 39.0002 34.8333 39.3812C34.0952 39.6669 32.9762 40.0002 30.9524 40.1193C28.7381 40.2145 28.0714 40.2383 22.4762 40.2621C16.9048 40.2859 16.2381 40.2621 14.0238 40.1669ZM31.119 11.905C31.119 13.2859 32.2619 14.405 33.6429 14.405C35.0238 14.405 36.1667 13.2621 36.1429 11.8812C36.1429 10.5002 35 9.38116 33.619 9.38116C32.2381 9.38116 31.119 10.524 31.119 11.905ZM11.7143 23.1193C11.7143 29.0716 16.5476 33.8573 22.5 33.8573C28.4286 33.8335 33.2381 29.024 33.2381 23.0716C33.2143 17.1431 28.4048 12.3097 22.4524 12.3335C16.5 12.3574 11.6905 17.1907 11.7143 23.1193ZM15.4762 23.1193C15.4762 19.2621 18.5952 16.1431 22.4524 16.1193C26.3095 16.1193 29.4524 19.2383 29.4524 23.0954C29.4524 26.9526 26.3333 30.0954 22.4762 30.0954C18.619 30.0954 15.5 26.9764 15.4762 23.1193Z" fill="#4D4D4D"/>
</svg>
