<svg width="45" height="32" viewBox="0 0 45 32" fill="none" xmlns="http://www.w3.org/2000/svg">
<path d="M44.0606 4.91954C43.542 2.98451 42.0179 1.45801 40.0829 0.941833C36.5724 1.49012e-06 22.5012 0 22.5012 0C22.5012 0 8.42756 1.49012e-06 4.91954 0.941833C2.98451 1.45801 1.458 2.98451 0.939385 4.91954C-8.34465e-07 8.43001 0 15.7518 0 15.7518C0 15.7518 -8.34465e-07 23.0737 0.939385 26.5841C1.458 28.5216 2.98206 30.0457 4.91954 30.5618C8.43001 31.5012 22.5012 31.5012 22.5012 31.5012C22.5012 31.5012 36.5724 31.5012 40.0829 30.5618C42.0179 30.0432 43.5444 28.5192 44.0606 26.5841C45 23.0737 45 15.7518 45 15.7518C45 15.7518 45 8.43001 44.0606 4.91954ZM18 22.5012V9L29.6909 15.7518L18 22.5012Z" fill="#4D4D4D"/>
</svg>
