<svg width="256" height="41" viewBox="0 0 256 41" fill="none" xmlns="http://www.w3.org/2000/svg">
<path d="M26.6815 11.6556C26.7417 10.8058 26.4665 10.0294 26.0709 9.29398C25.7871 8.75464 25.3829 8.28885 24.8927 7.90477C24.5487 7.6351 24.1531 7.42264 23.7489 7.23468C23.19 6.98136 22.5966 6.89964 21.986 6.85061C21.3324 6.79341 20.6874 6.87512 20.0768 7.07125C19.5952 7.21834 19.1394 7.43081 18.7352 7.74134C18.503 7.92112 18.2708 8.10907 18.0558 8.30519C17.9354 8.4196 17.815 8.54217 17.7118 8.67292C17.428 9.04882 17.17 9.44924 16.955 9.86601C16.6884 10.3808 16.5852 10.9283 16.4218 11.4677C16.3874 11.5821 16.3358 11.6883 16.2842 11.7864C16.095 12.1459 15.7424 12.0479 15.5274 11.8518C15.4758 11.8027 15.4242 11.7455 15.3812 11.6965C15.2006 11.4677 14.9598 11.4513 14.6932 11.5249C14.4868 11.5821 14.2891 11.6475 14.0913 11.721C13.6699 11.8844 13.4635 11.7619 13.2485 11.4759C13.1625 11.3533 13.0765 11.2307 12.9733 11.1163C12.7841 10.912 12.4831 10.8058 12.1735 10.961C11.9929 11.0509 11.7693 11.0836 11.5629 11.1163C11.2447 11.1653 10.9093 11.1898 10.5911 11.2389C10.3503 11.2716 10.1181 11.2389 9.9031 11.1326C9.5161 10.9447 9.5075 10.5034 9.8601 10.2664C10.3159 9.96407 10.8147 9.7516 11.2963 9.50645C11.8553 9.2286 12.3799 8.91808 12.7497 8.4196C12.8615 8.2725 12.9389 8.10907 13.0249 7.9538C13.1453 7.74134 13.2485 7.5207 13.3775 7.3164C13.5839 7.00587 13.7989 6.70352 14.0225 6.40933C14.2891 6.05794 14.6158 5.74741 14.9684 5.4614C15.3554 5.1427 15.794 4.87303 16.2154 4.59519C16.7916 4.21929 17.4366 3.96596 18.073 3.69629C18.4256 3.5492 18.7868 3.42662 19.148 3.29587C19.5694 3.14061 19.8532 2.85459 20.0424 2.47052C20.1284 2.29891 20.2574 2.13547 20.352 1.97204C20.524 1.66968 20.7476 1.40001 20.9626 1.13034C21.1002 0.958733 21.2636 0.811641 21.4614 0.729923C21.771 0.607346 22.0032 0.648205 22.0806 0.983249C22.1666 1.35915 22.2698 1.72688 22.3128 2.10279C22.3644 2.50321 22.6138 2.73202 22.9406 2.9118C23.061 2.97717 23.1986 3.01803 23.3276 3.05072C23.6973 3.14878 24.0671 3.23867 24.4283 3.37759C24.9185 3.57371 25.4087 3.75349 25.8817 3.99865C26.5353 4.33369 27.1459 4.71777 27.7307 5.15087C28.2381 5.52678 28.6939 5.95171 29.1153 6.40933C29.6657 7.01404 30.1301 7.68413 30.4741 8.42777C30.8181 9.16323 31.0417 9.92321 31.1363 10.7159C31.1879 11.1898 31.2137 11.6638 31.1879 12.1378C31.1535 12.7425 31.0417 13.339 30.8783 13.9274C30.7235 14.4667 30.4913 14.9734 30.2505 15.4719C30.0441 15.8886 29.7603 16.2809 29.4851 16.665C29.2013 17.049 28.9003 17.4168 28.5821 17.7681C28.3327 18.046 28.0489 18.2911 27.7737 18.5445C27.5071 18.7896 27.2405 19.0348 26.9567 19.2472C26.5697 19.5414 26.1483 19.8029 25.7613 20.0971C25.5635 20.2442 25.3743 20.4076 25.2109 20.5956C24.9787 20.8571 24.9787 21.1676 25.1249 21.47C25.3743 22.0093 25.6839 22.516 26.0365 22.9899C26.2945 23.3331 26.5955 23.66 26.9137 23.9624C27.3179 24.3546 27.7737 24.6815 28.2725 24.9593C28.9089 25.3189 29.5969 25.5069 30.3193 25.6458C31.0761 25.7847 31.7985 25.6785 32.5208 25.4905C33.097 25.3434 33.6044 25.0737 34.0602 24.7305C34.7138 24.2484 35.247 23.66 35.6254 22.9572C35.8232 22.5895 35.9866 22.2136 36.107 21.8132C36.2532 21.3311 36.3048 20.8407 36.3048 20.3341C36.3048 19.8438 36.2188 19.378 36.0984 18.904C35.9522 18.3483 35.6684 17.858 35.333 17.4004C35.0922 17.0735 34.7912 16.7794 34.473 16.5097C34.1806 16.2564 33.8366 16.0766 33.5012 15.8805C33.2948 15.7579 33.054 15.6843 32.8218 15.6108C32.624 15.5454 32.4176 15.4882 32.2027 15.4474C31.9877 15.4065 31.8673 15.2839 31.8243 15.096C31.7813 14.9162 31.8587 14.7773 32.0049 14.6629C32.2543 14.4831 32.2629 14.2461 32.1769 13.9928C32.1597 13.9519 32.1339 13.9111 32.1253 13.862C32.0909 13.7476 32.0565 13.6332 32.0393 13.5188C32.0049 13.2491 32.0393 13.004 32.2715 12.7915C32.3918 12.6771 32.4692 12.5055 32.5466 12.3502C32.6412 12.1541 32.6584 11.9416 32.5896 11.7374C32.581 11.6965 32.5638 11.6638 32.5552 11.6229C32.4778 11.3614 32.3747 11.1163 32.3231 10.8385C32.2629 10.4707 32.1683 10.1112 32.1855 9.73526C32.1855 9.66988 32.1597 9.59634 32.1597 9.53096C32.1511 9.42473 32.1511 9.32667 32.2629 9.26129C32.3661 9.20409 32.4864 9.21226 32.5982 9.3185C32.753 9.45742 32.9164 9.59634 33.0368 9.75977C33.3292 10.1438 33.5958 10.5443 33.8796 10.9447C33.957 11.0509 34.0516 11.1572 34.1376 11.2552C34.1634 11.2879 34.1978 11.3042 34.2236 11.3369C34.516 11.7782 34.9804 12.0152 35.4104 12.293C35.8834 12.6036 36.3478 12.9223 36.8122 13.241C37.3454 13.6087 37.8442 14.0255 38.3 14.4831C38.8762 15.0633 39.375 15.6925 39.7534 16.4116C40.0544 16.9837 40.3296 17.5639 40.5532 18.1686C40.622 18.3647 40.7252 18.5526 40.8112 18.7488C40.9746 19.1002 41.2584 19.3126 41.6109 19.4761C41.9291 19.615 42.2387 19.7702 42.5569 19.9255C42.6429 19.9664 42.7203 20.0317 42.7891 20.0971C42.8149 20.1216 42.8493 20.1543 42.8579 20.187C42.9697 20.5139 42.8149 20.7835 42.4709 20.8816C42.1613 20.9633 41.8603 21.0614 41.5421 21.1186C41.2068 21.184 41.0004 21.3883 40.88 21.6579C40.6994 22.0747 40.5618 22.5078 40.407 22.9327C40.3038 23.2106 40.1748 23.4802 40.0716 23.7581C39.8996 24.232 39.633 24.657 39.375 25.0901C39.0912 25.5641 38.7472 26.0053 38.3774 26.4221C37.5604 27.3373 36.58 28.0565 35.462 28.604C35.2642 28.702 35.0578 28.7756 34.8514 28.8491C34.5504 28.9554 34.258 29.0698 33.9484 29.1515C33.3464 29.3067 32.7272 29.3885 32.1081 29.4375C31.8329 29.4538 31.5491 29.4702 31.2739 29.4702C30.6461 29.4702 30.0355 29.3966 29.4163 29.2904C28.6079 29.1596 27.8511 28.89 27.1201 28.5468C26.7073 28.3506 26.2859 28.1382 25.8989 27.9012C25.5721 27.6969 25.2797 27.4436 24.9787 27.2066C24.6863 26.9696 24.3853 26.7408 24.1273 26.4793C23.7919 26.1443 23.4909 25.7847 23.19 25.4251C23.0094 25.2127 22.8632 24.9757 22.6826 24.7714C22.4504 24.5017 22.201 24.2566 21.8226 24.183C21.5818 24.1422 21.3668 24.183 21.169 24.2974C21.04 24.371 20.9196 24.4445 20.7992 24.5262C20.1714 24.9512 19.5436 25.3761 18.9932 25.8909C18.4084 26.4303 17.9096 27.0431 17.5828 27.7623C17.256 28.4814 17.0668 29.2332 17.0582 30.0259C17.0496 30.4998 17.0668 30.9574 17.2044 31.4151C17.3334 31.84 17.5398 32.2404 17.7634 32.6327C17.9526 32.9677 18.2192 33.2456 18.4858 33.5152C18.9674 34.0055 19.5522 34.3733 20.2144 34.6021C21.1002 34.9126 22.029 35.0352 22.975 34.8554C23.5081 34.7573 24.0069 34.5694 24.4713 34.2915C24.9873 33.981 25.4345 33.6051 25.8387 33.172C26.1483 32.837 26.4149 32.4692 26.6471 32.0852C26.9395 31.603 27.1889 31.0882 27.3351 30.5407C27.3695 30.4018 27.4125 30.271 27.4641 30.1403C27.5759 29.8379 27.9285 29.7725 28.1435 30.0177C28.2897 30.1811 28.4273 30.3609 28.5563 30.5407C28.7627 30.8185 28.9949 30.8839 29.3217 30.7205C29.4937 30.6387 29.6657 30.557 29.8721 30.557C30.0957 30.5489 30.2677 30.6224 30.4225 30.7613C30.5601 30.8839 30.6891 31.0146 30.8181 31.1454C30.9471 31.2843 31.0933 31.3252 31.2825 31.3007C31.7039 31.2516 32.0737 31.0473 32.4692 30.9248C32.7358 30.843 32.9938 30.745 33.2862 30.7613C33.3292 30.7613 33.3722 30.7613 33.4066 30.7695C33.6388 30.8185 33.7076 30.982 33.5528 31.1454C33.3894 31.317 33.2002 31.4641 33.011 31.6194C32.71 31.8645 32.4004 32.1097 32.0995 32.3548C32.0135 32.4284 31.9189 32.4856 31.8415 32.5673C31.7125 32.6899 31.5835 32.8288 31.4545 32.9595C31.1707 33.2456 30.9385 33.5724 30.7235 33.9238C30.5257 34.2425 30.2849 34.5449 30.0527 34.8472C29.8119 35.1578 29.5711 35.4601 29.3217 35.7543C28.8745 36.261 28.3499 36.7022 27.7909 37.1026C27.3179 37.4377 26.7933 37.6992 26.2773 37.9525C26.1741 38.0015 26.0623 38.0342 25.9591 38.0669C25.4431 38.2304 24.9185 38.3856 24.4025 38.5654C23.9811 38.7125 23.6371 38.9413 23.4738 39.3662C23.3104 39.783 23.061 40.1589 22.7944 40.5266C22.6826 40.6901 22.502 40.8208 22.3214 40.9352C22.1236 41.066 21.8828 40.9924 21.8054 40.7718C21.7366 40.5838 21.6936 40.3795 21.6678 40.1834C21.642 39.9056 21.5904 39.6441 21.4528 39.3989C21.3238 39.1619 21.1174 38.9985 20.8938 38.8514C20.5756 38.6471 20.2058 38.5654 19.836 38.5C19.4834 38.4428 19.1394 38.3529 18.804 38.2058C18.5288 38.0833 18.2364 37.9934 17.9612 37.8708C17.6688 37.7319 17.3764 37.5848 17.1012 37.4213C16.4734 37.0618 15.923 36.6123 15.3812 36.1384C15.1576 35.9423 14.9684 35.6971 14.7706 35.4765C14.5814 35.264 14.3923 35.0515 14.2289 34.8227C13.9451 34.4223 13.6957 34.0055 13.4635 33.5724C13.2313 33.1311 13.0679 32.6735 12.9217 32.1996C12.8443 31.9299 12.7411 31.6602 12.6895 31.3906C12.6293 31.0882 12.5949 30.7777 12.5777 30.4671C12.5519 30.0831 12.5261 29.699 12.5433 29.3231C12.5777 28.7511 12.5863 28.1709 12.7927 27.6152C12.9561 27.1821 13.0593 26.7326 13.3001 26.324C13.5581 25.8664 13.8333 25.417 14.1773 25.0002C14.7362 24.3138 15.3898 23.7172 16.0778 23.1452C16.3444 22.9246 16.6282 22.7203 16.8862 22.4996C17.2904 22.1564 17.6946 21.8132 18.073 21.4536C18.2622 21.2739 18.3826 21.0532 18.3568 20.7835C18.3482 20.71 18.3482 20.6446 18.3568 20.5711C18.4084 20.2033 18.2278 19.9173 17.9956 19.6558C17.7204 19.3371 17.4194 19.0348 17.1614 18.7079C16.7486 18.1767 16.2498 17.7273 15.7338 17.3105C15.364 17.0163 14.9598 16.7712 14.5212 16.5587C13.7387 16.1828 12.9045 16.0929 12.0531 16.142C11.4683 16.1746 10.9093 16.3054 10.3761 16.5505C9.7569 16.8284 9.22371 17.1961 8.76791 17.6701C8.33792 18.1195 8.00252 18.6344 7.77032 19.2146C7.61552 19.6231 7.46073 20.0236 7.41773 20.4485C7.36613 20.8489 7.34033 21.2493 7.36613 21.6579C7.40052 22.0747 7.41773 22.4996 7.52092 22.9082C7.72732 23.7336 8.06272 24.4854 8.72491 25.0901C8.94851 25.2944 9.19791 25.4496 9.4559 25.6049C9.9547 25.9073 10.5223 26.0298 11.0813 26.1769C11.1243 26.1851 11.1587 26.1933 11.2017 26.2096C11.5887 26.3077 11.6833 26.5855 11.4339 26.8797C11.1501 27.2148 11.1415 27.3618 11.3565 27.7459C11.5629 28.1055 11.5973 28.465 11.3823 28.8409C11.3049 28.9717 11.2361 29.1024 11.1759 29.2414C11.0297 29.5682 11.0985 29.8788 11.2275 30.1893C11.2963 30.3527 11.3307 30.5325 11.3737 30.7041C11.3995 30.794 11.3995 30.8921 11.4425 30.9738C11.6231 31.366 11.6231 31.7746 11.6317 32.1914C11.6317 32.2568 11.5973 32.3712 11.5543 32.3875C11.4683 32.412 11.3479 32.412 11.2791 32.363C11.1329 32.2568 10.9867 32.126 10.8921 31.9789C10.5653 31.4804 10.1955 31.0147 9.7741 30.5979C9.4817 30.3037 9.14631 30.0504 8.81951 29.7971C8.44971 29.511 8.06272 29.2495 7.69292 28.9717C7.28873 28.6693 6.88453 28.3588 6.50614 28.0319C6.16214 27.7378 5.84394 27.4109 5.52575 27.084C5.00115 26.5528 4.58836 25.9481 4.23576 25.3026C4.11536 25.0901 4.00356 24.8695 3.89176 24.657C3.77997 24.4445 3.69397 24.2157 3.56497 24.0032C3.38437 23.6927 3.27257 23.3577 3.14357 23.0308C3.05757 22.8102 2.95438 22.5977 2.82538 22.3934C2.77378 22.3035 2.67058 22.23 2.56738 22.1891C2.13738 21.9848 1.68159 21.8132 1.26019 21.6007C0.847398 21.3964 0.434603 21.184 0.176606 20.7835C0.0648071 20.6038 -0.0211926 20.424 0.00460709 20.2115C0.013207 20.0889 0.00460709 19.9582 0.00460709 19.8356C0.013207 19.7049 0.0648068 19.6477 0.202405 19.6477C0.305604 19.6477 0.426003 19.6395 0.520602 19.6804C1.0968 19.9173 1.70739 19.9092 2.30938 19.8928C2.54158 19.8846 2.73078 19.7702 2.88558 19.615C3.09197 19.4025 3.20377 19.1492 3.28977 18.8795C3.37577 18.6017 3.46177 18.3238 3.59077 18.0623C3.83157 17.5475 4.09816 17.049 4.45076 16.5996C4.67436 16.3136 4.88075 16.0112 5.13015 15.7497C5.37955 15.4719 5.68054 15.2431 5.93854 14.9734C6.17934 14.7201 6.45454 14.5239 6.74693 14.3278C7.01353 14.148 7.28013 13.9683 7.55532 13.7966C8.03692 13.5025 8.57011 13.2982 9.10331 13.0857C9.5677 12.9059 10.0579 12.816 10.5481 12.7261C10.8835 12.6608 11.2275 12.6036 11.5629 12.579C12.2251 12.5218 12.8873 12.5137 13.5495 12.6199C14.2031 12.7261 14.8566 12.816 15.4844 13.0367C16.181 13.2818 16.8604 13.5515 17.471 13.9437C17.8838 14.2134 18.3052 14.4667 18.6922 14.7609C19.019 15.0061 19.3114 15.2921 19.6038 15.5699C20.008 15.954 20.3778 16.3708 20.7132 16.8202C20.8766 17.0409 21.0486 17.2615 21.2206 17.474C21.6162 17.9724 22.3988 18.0215 22.8546 17.5557C23.1728 17.2288 23.5426 16.9591 23.8779 16.6486C24.1187 16.428 24.3509 16.1992 24.5745 15.9622C24.8325 15.7007 25.0819 15.431 25.3141 15.1532C25.5205 14.908 25.6925 14.6465 25.8731 14.3932C25.9677 14.2543 26.0709 14.1235 26.1483 13.9764C26.4923 13.2246 26.7245 12.4646 26.6815 11.6556Z" fill="#3D3D3D"/>
<path d="M104.278 12.1132C104.038 12.0234 103.797 11.8599 103.547 11.8517C101.931 11.7864 100.314 11.7373 98.7745 12.3911C97.6995 12.8487 96.5557 13.004 95.3947 12.9631C93.3135 12.8896 91.9978 10.6423 93.0384 8.92624C93.7349 7.77402 94.7927 7.1693 96.2117 7.15296C98.1553 7.13661 100.107 7.24285 102.034 7.03855C105.405 6.67899 108.768 6.98952 112.13 6.88329C113.188 6.8506 114.246 6.66265 115.295 6.67082C116.671 6.67899 118.055 6.76071 119.431 6.89963C121.306 7.08758 123.147 7.44714 124.927 8.1254C126.062 8.55851 126.673 9.64536 125.469 10.8058C124.333 11.8844 123 12.3421 121.444 12.1378C120.266 11.9825 119.096 11.6883 117.918 11.5004C116.697 11.3124 115.458 11.1735 114.229 11.0346C114.005 11.0101 113.713 10.9937 113.558 11.1081C113.326 11.2715 113.085 11.533 113.042 11.7782C113.016 11.9253 113.343 12.2195 113.566 12.2767C113.91 12.3747 114.297 12.3175 114.667 12.3502C115.355 12.4156 116.052 12.4319 116.714 12.5872C118.021 12.8896 118.571 13.5433 118.7 14.7936C118.752 15.2757 118.778 15.7579 118.795 16.24C118.864 19.5741 118.933 22.9082 118.984 26.2423C119.019 28.1709 118.253 29.9441 117.582 31.7011C117.032 33.1393 115.14 33.7522 113.91 32.8778C112.199 31.652 110.35 31.9217 108.475 32.0525C107.968 32.0851 107.469 32.2404 106.97 32.2241C105.973 32.1914 105.052 32.4039 104.149 32.7716C103.599 32.9922 103.023 33.172 102.447 33.3273C101.01 33.7195 100.262 33.4172 99.6775 32.1097C98.9637 30.5162 98.7057 28.8164 98.7487 27.0922C98.8003 25.0329 98.9551 22.9818 98.9895 20.9225C99.0067 19.8765 98.8949 18.8223 98.7831 17.7845C98.5939 15.9703 99.8839 13.9846 101.716 13.3799C102.24 13.2083 102.773 13.0857 103.298 12.9141C103.659 12.7915 104.003 12.6199 104.356 12.4728C104.313 12.3502 104.296 12.2277 104.278 12.1132ZM108.948 22.1237C109.817 22.5895 110.763 22.9572 111.511 23.5374C112.758 24.5099 112.397 25.4088 111.27 26.087C109.387 27.2148 107.314 27.0431 105.25 26.5692C105.207 26.561 105.164 26.5365 105.13 26.512C104.536 26.038 103.771 25.6212 103.762 24.8041C103.754 23.9787 104.382 23.4802 105.13 23.1288C105.379 23.0063 105.611 22.8428 105.852 22.6957C105.517 22.565 105.25 22.614 104.992 22.6304C104.665 22.6467 104.347 22.6222 104.02 22.6549C103.143 22.7284 102.662 23.2351 102.739 24.0441C102.825 24.9103 102.954 25.7765 103.126 26.6346C103.367 27.8685 103.444 27.9502 104.751 27.9094C106.317 27.8685 107.882 27.7214 109.447 27.6642C110.23 27.6397 111.012 27.7296 111.803 27.7377C112.913 27.7459 113.197 27.656 113.403 26.6754C113.644 25.5314 113.644 24.3383 113.73 23.1697C113.781 22.4424 113.334 22.1319 112.62 22.1237C111.365 22.1155 110.135 22.1237 108.948 22.1237ZM113.764 17.1062C113.566 16.9673 113.248 16.5669 112.913 16.5587C112.431 16.5424 112.113 16.9428 112.139 17.4576C112.165 17.9479 112.405 18.3075 112.939 18.3729C113.351 18.4219 113.799 17.8417 113.764 17.1062ZM104.175 17.5312C103.599 17.4413 103.057 17.3023 102.997 18.0133C102.98 18.2176 103.246 18.618 103.427 18.6344C104.21 18.7406 104.304 18.2503 104.175 17.5312ZM108.656 17.1062C108.57 17.0245 108.372 16.6649 108.123 16.6323C107.615 16.5669 107.538 17.0163 107.607 17.3595C107.667 17.6537 107.856 18.1277 108.054 18.1522C108.613 18.2421 108.673 17.7927 108.656 17.1062ZM109.335 11.77C108.888 11.484 108.561 11.1571 108.441 11.2143C108.131 11.3696 107.908 11.6965 107.65 11.9498C107.882 12.1051 108.14 12.3993 108.346 12.3747C108.63 12.3421 108.879 12.0642 109.335 11.77Z" fill="#3D3D3D"/>
<path d="M231.703 25.0329C230.895 24.9266 230.276 24.8449 229.485 24.7387C229.407 25.8419 229.313 26.8307 229.287 27.8195C229.27 28.8736 229.347 29.9278 229.338 30.982C229.33 31.505 229.287 32.0361 229.149 32.5428C228.883 33.4907 228.41 33.8176 227.489 33.8176C226.741 33.8176 225.95 33.3027 225.735 32.5755C225.589 32.077 225.537 31.5376 225.494 31.0146C225.382 29.7072 225.305 28.3915 225.185 27.084C225.159 26.847 225.013 26.6182 224.892 26.3077C223.929 26.8388 223.465 27.6479 223.009 28.4324C222.295 29.6663 221.246 30.557 220.042 31.317C219.853 31.4396 219.646 31.5948 219.431 31.6112C219.087 31.6439 218.606 31.6929 218.408 31.5131C218.21 31.3333 218.133 30.8185 218.262 30.5652C218.735 29.6173 219.208 28.6448 219.878 27.8276C221.573 25.7765 222.949 23.5456 224.264 21.282C224.393 21.0532 224.505 20.8081 224.583 20.5547C224.626 20.3995 224.591 20.2197 224.591 19.9337C223.886 19.9337 223.215 19.9337 222.553 19.9337C221.96 19.9337 221.349 19.9827 220.773 19.901C220.025 19.7866 219.276 19.5251 219.147 18.6916C219.001 17.7518 219.096 16.8202 220.007 16.1992C221.091 15.4637 222.312 15.1041 223.637 15.0878C224.376 15.0796 225.124 15.1205 225.855 15.0796C226.862 15.0224 227.868 14.9162 228.874 14.8263C230.026 14.7201 231.17 14.5975 232.288 15.0551C233.26 15.4555 233.578 16.0439 233.062 16.9183C232.658 17.5965 232.099 18.2012 231.548 18.7896C230.757 19.6313 230.783 20.0317 231.746 20.6691C232.125 20.9225 232.46 21.2248 232.847 21.4618C233.673 21.9766 234.154 22.6794 234.163 23.66C235.642 24.0196 236.958 23.6273 238.265 23.2024C238.781 23.0308 239.099 22.0257 238.919 21.4863C238.729 20.9143 238.282 20.6855 237.5 20.7672C237.087 20.8081 236.674 20.8816 236.261 20.8898C235.16 20.9061 234.619 20.5139 234.343 19.5496C234.051 18.5118 234.275 17.7355 235.178 17.3269C236.124 16.9019 237.138 16.5669 238.145 16.3136C239.091 16.0766 239.314 15.9703 239.357 15.0388C239.392 14.2951 239.417 13.527 239.254 12.8079C239.005 11.672 239.632 10.9774 240.398 10.3154C240.63 10.1112 240.931 9.96406 241.215 9.82514C242.539 9.17139 243.305 9.43289 243.795 10.7567C244.139 11.7047 244.362 12.6934 244.044 13.7067C243.941 14.0418 243.846 14.3932 243.829 14.7364C243.769 15.7415 244.165 16.1093 245.214 16.0521C245.627 16.0275 246.039 15.954 246.444 15.8804C247.949 15.6026 249.729 17.2043 249.35 19.0593C249.196 19.8193 248.619 20.2033 247.94 20.3586C246.917 20.5874 245.859 20.6773 244.81 20.8081C244.448 20.8571 244.079 20.8734 243.64 20.9061C243.511 21.2902 243.339 21.6497 243.287 22.0257C243.193 22.851 243.563 23.2351 244.457 23.2678C246.994 23.3658 249.531 23.4312 252.068 23.5456C253.676 23.611 254.837 24.4445 255.68 25.6703C256.204 26.4303 256.067 27.0513 255.396 27.6805C254.14 28.8655 252.601 28.9553 251.01 28.5794C248.714 28.0319 246.401 27.6397 244.027 27.7868C242.608 27.8767 241.206 28.2199 239.796 28.2689C237.844 28.3343 235.943 28.6366 234.077 29.1515C233.311 29.3639 232.546 29.6091 231.892 28.9145C231.136 28.1055 230.783 27.1984 231.187 26.1279C231.299 25.8255 231.454 25.5559 231.703 25.0329Z" fill="#3D3D3D"/>
<path d="M140.725 15.8886C140.149 16.0521 139.77 16.1665 139.375 16.2645C138.231 16.5669 137.035 16.0194 136.648 15.0224C136.193 13.8212 136.683 12.6362 137.887 12.195C139.4 11.6475 140.983 11.3369 142.608 11.3451C142.978 11.3451 143.348 11.3696 143.718 11.3206C145.248 11.1326 145.3 11.0182 145.386 9.55547C145.455 8.3869 146.083 7.3736 146.857 6.51556C147.579 5.72289 149.015 5.93536 149.591 6.89146C149.996 7.56155 150.271 8.3297 150.451 9.08151C150.881 10.8466 151.131 11.0754 153.074 10.9692C153.762 10.9283 154.45 10.8548 155.13 10.7731C156.299 10.626 157.34 10.9937 158.294 11.5412C159.748 12.3747 159.696 13.9682 158.251 14.8018C157.331 15.3329 156.325 15.3656 155.302 15.3084C153.453 15.2022 153.306 15.2512 152.55 16.8447C151.294 19.476 151.432 19.5905 153.444 21.3964C156.291 23.9297 159.49 26.0053 162.981 27.656C163.893 28.0891 164.805 28.5222 165.639 29.0698C167.023 29.9768 166.808 31.6194 165.269 32.3058C165.14 32.363 165.02 32.4365 164.891 32.4611C162.689 32.8288 160.487 32.8533 158.294 32.412C157.933 32.3385 157.52 32.0443 157.314 31.7419C155.62 29.2577 153.195 27.37 151.32 25.041C151.019 24.6651 150.615 24.3464 150.228 24.0441C149.247 23.2841 148.74 23.325 147.914 24.2974C146.341 26.1524 144.569 27.8113 142.514 29.176C140.561 30.4753 138.429 31.3905 135.978 31.4477C135.659 31.4559 135.315 31.4477 135.023 31.3497C134.284 31.1045 133.484 30.8839 133.424 29.936C133.363 28.9799 133.458 28.0728 134.473 27.5416C135.453 27.035 136.459 26.61 137.629 26.6999C138.79 26.7898 139.813 26.4384 140.725 25.7602C142.006 24.8204 143.313 23.9215 144.569 22.9572C145.145 22.516 145.644 21.9194 145.489 21.1513C145.334 20.3913 144.732 19.9827 143.933 19.8274C143.434 19.7294 142.952 19.5986 142.453 19.4842C140.897 19.1492 139.934 18.2666 140.604 16.7794C140.699 16.5832 140.673 16.3462 140.725 15.8886ZM145.747 15.6353C146.246 16.6976 147.003 16.9264 147.76 17.0572C148.25 17.1471 148.74 16.6649 148.783 16.1746C148.843 15.5863 148.405 15.3575 147.932 15.3656C147.269 15.3738 146.607 15.5291 145.747 15.6353Z" fill="#3D3D3D"/>
<path d="M75.0646 25.9645C77.6188 25.7683 79.7774 25.564 81.9359 25.4578C82.8389 25.4088 83.7849 25.4415 84.6707 25.6294C86.0639 25.9318 86.6229 27.0513 85.9607 28.2607C84.9803 30.0585 83.5355 31.4396 81.5231 32.2159C81.3941 32.2649 81.2393 32.2486 81.1275 32.314C79.4936 33.3028 77.7908 33.0821 76.0622 32.5836C74.4368 32.1178 72.7856 31.7092 71.1602 31.2435C69.4919 30.7613 67.8321 30.2383 66.1723 29.748C65.3381 29.5029 64.5039 29.2414 63.6525 29.0371C60.3158 28.2362 58.312 25.3598 59 22.1809C59.344 20.6038 59.8686 19.0511 60.3158 17.4903C60.3846 17.237 60.4706 16.9836 60.5222 16.7221C60.6942 15.9295 60.3588 15.5536 59.5246 15.6026C59.2494 15.619 58.9914 15.7252 58.7162 15.7742C57.3746 15.9867 56.2566 15.5372 55.603 14.5239C55.13 13.7803 55.259 12.4156 55.9728 11.5739C57.0306 10.3318 58.3378 9.51461 60.1008 9.46558C62.1561 9.40838 64.1427 9.77611 66.1035 10.2501C68.0041 10.7159 68.5803 12.6281 67.2989 14.0745C66.1895 15.3248 65.1661 16.6159 64.5985 18.1767C64.2803 19.0429 64.0137 19.9255 63.8073 20.8244C63.5063 22.1319 64.8995 23.5783 66.1723 24.0359C67.3763 24.469 68.6233 24.8286 69.8789 25.0819C71.7106 25.4742 73.5768 25.7193 75.0646 25.9645Z" fill="#3D3D3D"/>
<path d="M202.816 29.6581C201.767 29.3476 200.701 29.0861 199.677 28.7102C198.172 28.1627 196.693 27.558 195.222 26.9369C193.115 26.0544 191.249 24.8694 190.26 22.7938C190.054 22.3689 189.968 21.8704 189.933 21.3964C189.787 19.1655 189.796 16.9183 189.495 14.7037C189.323 13.4289 189.787 12.481 190.424 11.5249C191.387 10.0785 192.488 9.99675 193.743 11.2634C194.061 11.5821 194.319 11.9498 194.56 12.3257C194.939 12.9059 195.455 13.1592 196.177 13.1511C197.381 13.1347 198.576 13.1838 199.78 13.1919C201.26 13.2001 202.429 14.0091 202.644 15.1858C202.833 16.1992 202.455 16.9183 201.397 17.2206C200.348 17.523 199.247 17.6701 198.164 17.8907C197.132 18.095 196.048 18.1767 195.085 18.5363C193.881 18.9857 193.76 19.8111 194.681 20.6936C195.265 21.2493 195.919 21.7642 196.624 22.1646C198.164 23.039 199.686 23.8316 201.647 23.7499C203.418 23.6764 205.215 24.0604 207.004 24.2729C207.408 24.3219 207.813 24.4772 208.165 24.6733C209.275 25.2617 209.421 26.3077 208.526 27.1902C206.987 28.7184 205.138 29.5846 202.816 29.6581Z" fill="#3D3D3D"/>
<path d="M183.913 9.57182C185.083 9.70256 186.081 10.1193 186.657 11.1326C187.233 12.1541 186.812 13.0775 186.192 13.9519C186.141 14.0255 186.081 14.1072 186.003 14.1399C183.63 15.2757 183.931 17.4821 183.845 19.4107C183.707 22.5977 183.81 25.7847 184.232 28.9635C184.352 29.8542 184.154 30.8022 183.956 31.6929C183.862 32.126 183.475 32.5428 183.122 32.8615C182.537 33.3926 181.918 33.3273 181.282 32.8124C180.663 32.3221 180.439 31.6766 180.396 30.9574C180.233 27.9829 180.104 25.0084 179.906 22.042C179.811 20.6936 179.631 19.3453 179.39 18.0215C179.192 16.9264 179.098 16.951 177.945 16.8284C177.36 16.763 176.758 16.6486 176.217 16.428C175.133 15.9867 174.445 14.9244 174.565 13.9192C174.703 12.7752 175.107 11.8354 176.483 11.484C178.169 11.0591 179.811 10.4544 181.488 9.98858C182.279 9.76794 183.114 9.70256 183.913 9.57182Z" fill="#3D3D3D"/>
<path d="M227.79 9.27763C229.054 9.18774 230.129 9.50644 231.118 10.4462C231.97 11.2552 231.781 12.7098 230.766 13.102C228.771 13.862 226.69 14.2543 224.557 13.6822C223.576 13.4207 223.112 12.6199 223.181 11.6311C223.25 10.6668 224.127 9.69439 225.142 9.4901C225.632 9.39203 226.139 9.32666 226.646 9.27763C227.016 9.25311 227.386 9.27763 227.79 9.27763Z" fill="#3D3D3D"/>
</svg>
