<svg width="28" height="28" viewBox="0 0 28 28" fill="none" xmlns="http://www.w3.org/2000/svg">
<path d="M8.19048 0.5C6.69841 0.5625 5.68254 0.796875 4.79365 1.14062C3.88889 1.5 3.11111 1.96875 2.33333 2.73438C1.55556 3.5 1.07937 4.26562 0.730159 5.17188C0.380952 6.04688 0.15873 7.04688 0.0793651 8.51562C0.015873 9.98438 0 10.4531 0 14.1875C0.015873 17.9219 0.031746 18.3906 0.0952381 19.8594C0.15873 21.3281 0.396825 22.3281 0.746032 23.1875C1.11111 24.0938 1.5873 24.8594 2.36508 25.625C3.14286 26.3906 3.92063 26.8594 4.84127 27.2031C5.73016 27.5469 6.74603 27.7656 8.2381 27.8438C9.73016 27.9063 10.2063 27.9219 14 27.9219C17.7937 27.9062 18.2698 27.9062 19.7619 27.8281C21.254 27.7656 22.2698 27.5312 23.1587 27.1875C24.0794 26.8281 24.8571 26.3594 25.6349 25.5938C26.4127 24.8281 26.8889 24.0625 27.2381 23.1562C27.5873 22.2813 27.8095 21.2812 27.8889 19.8125C27.9524 18.3438 27.9683 17.875 27.9683 14.1406C27.9524 10.4062 27.9524 9.9375 27.873 8.46875C27.8095 7 27.5714 6 27.2222 5.125C26.8571 4.21875 26.381 3.45312 25.6032 2.6875C24.8254 1.92188 24.0476 1.45312 23.127 1.10938C22.2381 0.765625 21.2222 0.546875 19.7302 0.46875C18.2222 0.421875 17.746 0.40625 13.9524 0.40625C10.1587 0.421875 9.68254 0.4375 8.19048 0.5ZM8.34921 25.3594C6.98413 25.2969 6.25397 25.0781 5.7619 24.8906C5.11111 24.6406 4.65079 24.3438 4.15873 23.8594C3.66667 23.375 3.36508 22.9219 3.11111 22.2812C2.92063 21.7969 2.68254 21.0625 2.61905 19.7344C2.55556 18.2812 2.53968 17.8438 2.52381 14.1719C2.52381 10.5 2.52381 10.0625 2.5873 8.60938C2.65079 7.26562 2.87302 6.54688 3.06349 6.0625C3.31746 5.42188 3.61905 4.96875 4.11111 4.48438C4.60318 4 5.06349 3.70312 5.71429 3.45312C6.20635 3.26562 6.95238 3.04688 8.30159 2.96875C9.77778 2.90625 10.2222 2.89062 13.9365 2.875C17.6667 2.875 18.1111 2.875 19.5873 2.9375C20.9524 3 21.6825 3.21875 22.1746 3.40625C22.8254 3.65625 23.3016 3.95312 23.7778 4.4375C24.2698 4.92188 24.5714 5.375 24.8254 6.01562C25.0159 6.5 25.2381 7.23438 25.3175 8.5625C25.381 10.0156 25.3968 10.4531 25.4127 14.1094C25.4286 17.7812 25.4127 18.2188 25.3492 19.6719C25.2857 21.0156 25.0635 21.7344 24.873 22.2344C24.619 22.875 24.3175 23.3281 23.8254 23.8125C23.3333 24.2969 22.873 24.5937 22.2222 24.8438C21.7302 25.0312 20.9841 25.25 19.6349 25.3281C18.1587 25.3906 17.7143 25.4062 13.9841 25.4219C10.2698 25.4375 9.8254 25.4219 8.34921 25.3594ZM19.746 6.8125C19.746 7.71875 20.5079 8.45312 21.4286 8.45312C22.3492 8.45312 23.1111 7.70313 23.0952 6.79688C23.0952 5.89062 22.3333 5.15625 21.4127 5.15625C20.4921 5.15625 19.746 5.90625 19.746 6.8125ZM6.80952 14.1719C6.80952 18.0781 10.0317 21.2188 14 21.2188C17.9524 21.2031 21.1587 18.0469 21.1587 14.1406C21.1429 10.25 17.9365 7.07812 13.9683 7.09375C10 7.10938 6.79365 10.2812 6.80952 14.1719ZM9.31746 14.1719C9.31746 11.6406 11.3968 9.59375 13.9683 9.57812C16.5397 9.57812 18.6349 11.625 18.6349 14.1562C18.6349 16.6875 16.5556 18.75 13.9841 18.75C11.4127 18.75 9.33333 16.7031 9.31746 14.1719Z" fill="white"/>
</svg>
