<svg width="21" height="20" viewBox="0 0 21 20" fill="none" xmlns="http://www.w3.org/2000/svg">
<path d="M2.5 20C1.8125 20 1.22417 19.7554 0.735 19.2663C0.245 18.7763 0 18.1875 0 17.5C0 16.8125 0.245 16.2237 0.735 15.7337C1.22417 15.2446 1.8125 15 2.5 15C3.1875 15 3.77583 15.2446 4.265 15.7337C4.755 16.2237 5 16.8125 5 17.5C5 18.1875 4.755 18.7763 4.265 19.2663C3.77583 19.7554 3.1875 20 2.5 20ZM2.5 12.5C1.8125 12.5 1.22417 12.255 0.735 11.765C0.245 11.2758 0 10.6875 0 10C0 9.3125 0.245 8.72375 0.735 8.23375C1.22417 7.74458 1.8125 7.5 2.5 7.5C3.1875 7.5 3.77583 7.74458 4.265 8.23375C4.755 8.72375 5 9.3125 5 10C5 10.6875 4.755 11.2758 4.265 11.765C3.77583 12.255 3.1875 12.5 2.5 12.5ZM2.5 5C1.8125 5 1.22417 4.755 0.735 4.265C0.245 3.77583 0 3.1875 0 2.5C0 1.8125 0.245 1.22417 0.735 0.735C1.22417 0.245 1.8125 0 2.5 0C3.1875 0 3.77583 0.245 4.265 0.735C4.755 1.22417 5 1.8125 5 2.5C5 3.1875 4.755 3.77583 4.265 4.265C3.77583 4.755 3.1875 5 2.5 5ZM10 12.5C9.3125 12.5 8.72417 12.255 8.235 11.765C7.745 11.2758 7.5 10.6875 7.5 10C7.5 9.3125 7.745 8.72375 8.235 8.23375C8.72417 7.74458 9.3125 7.5 10 7.5C10.6875 7.5 11.2762 7.74458 11.7663 8.23375C12.2554 8.72375 12.5 9.3125 12.5 10L10 12.5ZM10 5C9.3125 5 8.72417 4.755 8.235 4.265C7.745 3.77583 7.5 3.1875 7.5 2.5C7.5 1.8125 7.745 1.22417 8.235 0.735C8.72417 0.245 9.3125 0 10 0C10.6875 0 11.2762 0.245 11.7663 0.735C12.2554 1.22417 12.5 1.8125 12.5 2.5C12.5 3.1875 12.2554 3.77583 11.7663 4.265C11.2762 4.755 10.6875 5 10 5ZM8.75 20V17.3438L15.375 10.7188L18.0312 13.375L11.4062 20H8.75ZM17.5 5C16.8125 5 16.2237 4.755 15.7337 4.265C15.2446 3.77583 15 3.1875 15 2.5C15 1.8125 15.2446 1.22417 15.7337 0.735C16.2237 0.245 16.8125 0 17.5 0C18.1875 0 18.7763 0.245 19.2663 0.735C19.7554 1.22417 20 1.8125 20 2.5C20 3.1875 19.7554 3.77583 19.2663 4.265C18.7763 4.755 18.1875 5 17.5 5ZM18.9062 12.5L16.25 9.84375L17.1562 8.9375C17.4062 8.6875 17.7033 8.5625 18.0475 8.5625C18.3908 8.5625 18.6771 8.6875 18.9062 8.9375L19.8125 9.84375C20.0625 10.0729 20.1875 10.3592 20.1875 10.7025C20.1875 11.0467 20.0625 11.3437 19.8125 11.5938L18.9062 12.5Z" fill="white"/>
</svg>
