<svg xmlns="http://www.w3.org/2000/svg" width="40" height="38" viewBox="0 0 40 38">
  <path id="icon03" d="M4,22,14,4,24,22ZM14.05,42A7.7,7.7,0,0,1,8.4,39.65a8,8,0,0,1,0-11.325A7.745,7.745,0,0,1,14.05,26a7.7,7.7,0,0,1,5.65,2.35,7.967,7.967,0,0,1,0,11.3A7.7,7.7,0,0,1,14.05,42Zm0-3a5.021,5.021,0,0,0,3.55-8.55A4.828,4.828,0,0,0,14.05,29a5.021,5.021,0,0,0-3.55,8.55A4.828,4.828,0,0,0,14.05,39ZM9.1,19h9.8L14,10.2ZM26,42V26H42V42Zm3-3H39V29H29Zm5-17q-2.85-2.4-4.775-4.05a36.774,36.774,0,0,1-3.075-2.9A9.235,9.235,0,0,1,24.5,12.7a5.612,5.612,0,0,1-.5-2.35,5.125,5.125,0,0,1,1.575-3.8A5.372,5.372,0,0,1,29.5,5a5.522,5.522,0,0,1,2.5.6,5.3,5.3,0,0,1,2,1.75A5.3,5.3,0,0,1,36,5.6,5.522,5.522,0,0,1,38.5,5a5.372,5.372,0,0,1,3.925,1.55A5.125,5.125,0,0,1,44,10.35a5.612,5.612,0,0,1-.5,2.35,9.235,9.235,0,0,1-1.65,2.35,36.774,36.774,0,0,1-3.075,2.9Q36.85,19.6,34,22Zm0-3.95a64.622,64.622,0,0,0,5.625-5A4.221,4.221,0,0,0,41,10.45a2.451,2.451,0,0,0-.65-1.775A2.316,2.316,0,0,0,38.6,8a2.581,2.581,0,0,0-1.275.35,9.6,9.6,0,0,0-1.575,1.2L34,11.2,32.25,9.55a9.6,9.6,0,0,0-1.575-1.2A2.581,2.581,0,0,0,29.4,8a2.316,2.316,0,0,0-1.75.675A2.451,2.451,0,0,0,27,10.45a4.221,4.221,0,0,0,1.375,2.6A64.622,64.622,0,0,0,34,18.05ZM34,13ZM14,14.6ZM14.05,34ZM34,34Z" transform="translate(-4 -4)" fill="#3d3d3d"/>
</svg>
