<svg xmlns="http://www.w3.org/2000/svg" width="50" height="48.81" viewBox="0 0 50 48.81">
  <path id="icon01_w" d="M14.262,29.138c-1.865-1.667,20.169-3.294,18.482-4.881a55.7,55.7,0,0,1-4.435-4.643,25.733,25.733,0,0,1-3.036-4.375,8.634,8.634,0,0,1-1.131-4.077A7.118,7.118,0,0,1,31.4,3.9a7.189,7.189,0,0,1,3.542.982,10.957,10.957,0,0,1,3.125,2.649A10.957,10.957,0,0,1,41.2,4.882,7.189,7.189,0,0,1,44.738,3.9,7.118,7.118,0,0,1,52,11.162a8.634,8.634,0,0,1-1.131,4.077,25.733,25.733,0,0,1-3.036,4.375A55.7,55.7,0,0,1,43.4,24.257C41.712,25.844,16.127,27.471,14.262,29.138Zm23.81-4.94Q42,20.626,45.214,17.114t3.214-5.952a3.564,3.564,0,0,0-3.69-3.69,4.528,4.528,0,0,0-1.994.476A5.969,5.969,0,0,0,40.75,9.733l-2.679,3.274L35.393,9.733A5.969,5.969,0,0,0,33.4,7.948,4.528,4.528,0,0,0,31.4,7.471a3.564,3.564,0,0,0-3.69,3.69q0,2.44,3.214,5.952T38.071,24.2ZM33.31,52.71,14.8,47.412V50.8H2V27.352H20.393l15.179,5.714A6.27,6.27,0,0,1,38.28,35a5.9,5.9,0,0,1,1.1,3.839h6.786a5.463,5.463,0,0,1,4.167,1.786A6.784,6.784,0,0,1,52,45.448V47ZM5.571,47.233h5.6V30.924h-5.6Zm27.5,1.786L48.31,44.376a3.118,3.118,0,0,0-.893-1.548,1.978,1.978,0,0,0-1.25-.417H33.845a20.778,20.778,0,0,1-6.19-.893l-4.821-1.488,1.31-3.452,4.345,1.429a16.437,16.437,0,0,0,2.827.655,35.874,35.874,0,0,0,4.256.179,3.808,3.808,0,0,0-.268-1.4,1.728,1.728,0,0,0-.923-.982L19.8,30.924h-5V43.662ZM11.167,39.079ZM35.571,38.84ZM11.167,39.079ZM14.8,39.079ZM38.071,15.8Z" transform="translate(-2 -3.9)" fill="#fff"/>
</svg>
