<svg xmlns="http://www.w3.org/2000/svg" width="28" height="38" viewBox="0 0 28 38">
  <path id="icon04" d="M24,26.85a4.73,4.73,0,0,1-3.6-1.55,5.291,5.291,0,0,1-1.45-3.75V9a4.787,4.787,0,0,1,1.475-3.55,5.132,5.132,0,0,1,7.15,0A4.787,4.787,0,0,1,29.05,9V21.55A5.291,5.291,0,0,1,27.6,25.3,4.73,4.73,0,0,1,24,26.85ZM24,15.45ZM22.5,42V35.2a13.648,13.648,0,0,1-8.9-4.45,13.117,13.117,0,0,1-3.6-9.2h3a10.19,10.19,0,0,0,3.225,7.65A10.815,10.815,0,0,0,24,32.3a10.815,10.815,0,0,0,7.775-3.1A10.19,10.19,0,0,0,35,21.55h3a13.117,13.117,0,0,1-3.6,9.2,13.648,13.648,0,0,1-8.9,4.45V42ZM24,23.85a1.85,1.85,0,0,0,1.475-.675,2.422,2.422,0,0,0,.575-1.625V9a1.894,1.894,0,0,0-.6-1.425,2.116,2.116,0,0,0-2.9,0A1.894,1.894,0,0,0,21.95,9V21.55a2.422,2.422,0,0,0,.575,1.625A1.85,1.85,0,0,0,24,23.85Z" transform="translate(-10 -4)" fill="#3d3d3d"/>
</svg>
