<svg xmlns="http://www.w3.org/2000/svg" width="32" height="40" viewBox="0 0 32 40">
  <path id="icon02" d="M24,33.6a9.283,9.283,0,0,0,6.8-2.85,9.537,9.537,0,0,0,0-13.6,9.537,9.537,0,0,0-13.6,0,9.537,9.537,0,0,0,0,13.6A9.283,9.283,0,0,0,24,33.6ZM27.7,29l-4.95-4.55v-6.8h2.1v6.2l4.2,3.8ZM24,43.95a19.635,19.635,0,0,1-11.5-8.125A23.715,23.715,0,0,1,8,21.85V9.95l16-6,16,6v11.9a23.715,23.715,0,0,1-4.5,13.975A19.635,19.635,0,0,1,24,43.95Zm0-3.1a18.038,18.038,0,0,0,9.375-7.175A20.4,20.4,0,0,0,37,21.85v-9.8L24,7.15l-13,4.9v9.8a20.4,20.4,0,0,0,3.625,11.825A18.038,18.038,0,0,0,24,40.85ZM24,24Z" transform="translate(-8 -3.95)" fill="#3d3d3d"/>
</svg>
