<svg width="100" height="34" viewBox="0 0 100 34" fill="none" xmlns="http://www.w3.org/2000/svg">
<path d="M79.6133 8.10236C79.6133 8.38422 79.6543 8.67634 79.7671 8.95308C80.2642 10.183 81.53 10.9415 83.1392 10.3009C83.5235 10.1472 94.1677 5.85771 94.1677 5.85771C94.1677 5.85771 89.9756 16.4865 89.8168 16.8811C89.2069 18.4032 89.9398 19.7818 91.1851 20.243C91.4618 20.3455 91.7488 20.3916 92.0307 20.3916C93.0505 20.3865 93.9473 19.7869 94.3881 18.5877C94.4547 18.4083 99.6973 4.01278 99.8101 3.66942C99.8767 3.46443 99.9997 2.9827 99.9997 2.64959C100.005 1.93724 99.7383 1.2659 99.231 0.758542C98.7236 0.256313 98.0625 -0.00505085 97.3604 7.3938e-05C97.0171 7.3938e-05 96.7403 0.0615714 96.3201 0.194816C96.069 0.276812 82.5549 5.30423 81.4019 5.73471C80.2488 6.16519 79.6082 7.08253 79.6133 8.10236Z" fill="#ED1C24"/>
<path d="M54.2923 16.22V15.9125H46.0978V18.0085H50.8587C49.6185 21.9341 45.1855 24.2403 45.1855 24.2403L46.3694 25.8956C46.3694 25.8956 54.2923 22.6259 54.2923 16.22Z" fill="white"/>
<path d="M51.7046 30.1338V26.0647H48.7988V30.6565C48.7988 32.0914 49.9417 33.1267 51.5098 33.1267H60.5141V31.0357H52.7244C52.0172 31.0357 51.72 30.7539 51.7046 30.1338Z" fill="white"/>
<path d="M53.9639 19.7713V21.8725H57.418V26.9204H60.3237V15.6869H57.418V19.7713H53.9639Z" fill="white"/>
<path d="M79.0036 24.112H81.9094V15.6049H79.0036V18.2544H75.9697V20.3248H79.0036V24.112Z" fill="white"/>
<path d="M13.8261 25.9058H2.76172V30.6564C2.76172 32.0914 3.90455 33.1266 5.47273 33.1266H14.4667V26.5515C14.4667 26.1927 14.1797 25.9058 13.8261 25.9058ZM11.5661 31.0305H6.68731C5.98008 31.0357 5.67772 30.7538 5.66747 30.1337V28.0018H11.5661V31.0305Z" fill="white"/>
<path d="M14.6671 15.9381V15.8407H2.60852V17.9367H11.6281C11.6281 18.0751 11.6281 18.2493 11.6281 18.4185C11.6281 20.3659 11.5308 21.6471 11.4795 22.1698H0V24.2658H17.6856V22.1698H14.0675C14.2367 21.5087 14.6671 19.4844 14.6671 15.9381Z" fill="white"/>
<path d="M32.7222 26.9564C35.136 26.4286 36.9194 24.6195 36.9194 22.4773C36.9194 21.3243 36.4018 20.2686 35.5511 19.4537H38.6362V17.3577H32.7222V15.3795H29.8216V17.3577H23.9076V19.4537H26.9927C26.142 20.2686 25.6244 21.3191 25.6244 22.4773C25.6244 24.6246 27.4078 26.4286 29.8267 26.9564V29.0781H22.4316V31.1741H40.1122V29.0781H32.7222V26.9564ZM28.6121 22.4107C28.6121 20.9809 29.8062 19.8125 31.2719 19.8125C32.7376 19.8125 33.9317 20.9758 33.9317 22.4107C33.9317 23.8457 32.7376 25.009 31.2719 25.009C29.8062 25.009 28.6121 23.8457 28.6121 22.4107Z" fill="white"/>
<path d="M73.4488 23.9276H76.2623C76.1444 23.246 75.1144 17.742 72.4341 15.8356H69.1901L66.6943 23.9942H69.6103L71.2708 18.1212C72.675 19.7612 73.3566 23.3946 73.4488 23.9276Z" fill="white"/>
<path d="M74.0275 31.1074C73.2895 31.1074 73.1563 30.9178 73.1563 30.2925V30.0312H81.9145V25.6239C81.9145 25.2446 81.6378 24.9474 81.2432 24.9474H70.3018V26.9666H79.1318V28.0479H70.3735V30.6564C70.3735 32.1682 71.46 33.1265 73.0845 33.1265H82.099V31.1074H74.0275Z" fill="white"/>
</svg>
