<svg width="125" height="42" viewBox="0 0 125 42" fill="none" xmlns="http://www.w3.org/2000/svg">
<path d="M99.5166 10.128C99.5166 10.4803 99.5679 10.8454 99.7088 11.1913C100.33 12.7288 101.912 13.6769 103.924 12.8761C104.404 12.6839 117.71 7.32213 117.71 7.32213C117.71 7.32213 112.47 20.6081 112.271 21.1014C111.509 23.004 112.425 24.7272 113.981 25.3037C114.327 25.4318 114.686 25.4895 115.038 25.4895C116.313 25.4831 117.434 24.7336 117.985 23.2346C118.068 23.0104 124.622 5.01598 124.763 4.58678C124.846 4.33054 125 3.72837 125 3.31199C125.006 2.42155 124.673 1.58237 124.039 0.948178C123.405 0.320392 122.578 -0.00631356 121.701 9.24225e-05C121.271 9.24225e-05 120.925 0.0769643 120.4 0.24352C120.086 0.346016 103.194 6.63029 101.752 7.16839C100.311 7.70649 99.5102 8.85316 99.5166 10.128Z" fill="#ED1C24"/>
<path d="M67.8649 20.275V19.8906H57.6217V22.5107H63.5729C62.0226 27.4177 56.4814 30.3003 56.4814 30.3003L57.9612 32.3695C57.9612 32.3695 67.8649 28.2825 67.8649 20.275Z" fill="#3D3D3D"/>
<path d="M64.6302 37.6673V32.5809H60.998V38.3207C60.998 40.1144 62.4266 41.4084 64.3868 41.4084H75.6421V38.7947H65.905C65.021 38.7947 64.6495 38.4424 64.6302 37.6673Z" fill="#3D3D3D"/>
<path d="M67.4551 24.7143V27.3408H71.7727V33.6507H75.4049V19.6088H71.7727V24.7143H67.4551Z" fill="#3D3D3D"/>
<path d="M98.7547 30.1402H102.387V19.5062H98.7547V22.8181H94.9624V25.4061H98.7547V30.1402Z" fill="#3D3D3D"/>
<path d="M17.2832 32.3823H3.45264V38.3207C3.45264 40.1143 4.88117 41.4084 6.8414 41.4084H18.0839V33.1895C18.0839 32.7411 17.7252 32.3823 17.2832 32.3823ZM14.4581 38.7883H8.35962C7.47559 38.7947 7.09764 38.4424 7.08483 37.6673V35.0024H14.4581V38.7883Z" fill="#3D3D3D"/>
<path d="M18.3339 19.9226V19.8009H3.26065V22.421H14.5352C14.5352 22.5939 14.5352 22.8117 14.5352 23.0231C14.5352 25.4574 14.4135 27.0589 14.3494 27.7123H0V30.3323H22.1071V27.7123H17.5844C17.7958 26.8859 18.3339 24.3556 18.3339 19.9226Z" fill="#3D3D3D"/>
<path d="M40.9023 33.6956C43.9195 33.0358 46.1488 30.7745 46.1488 28.0968C46.1488 26.6554 45.5018 25.3358 44.4384 24.3172H48.2948V21.6972H40.9023V19.2245H37.2765V21.6972H29.884V24.3172H33.7404C32.677 25.3358 32.03 26.649 32.03 28.0968C32.03 30.7809 34.2593 33.0358 37.2829 33.6956V36.3477H28.0391V38.9677H50.1397V36.3477H40.9023V33.6956ZM35.7647 28.0135C35.7647 26.2262 37.2573 24.7657 39.0894 24.7657C40.9215 24.7657 42.4141 26.2198 42.4141 28.0135C42.4141 29.8072 40.9215 31.2613 39.0894 31.2613C37.2573 31.2613 35.7647 29.8072 35.7647 28.0135Z" fill="#3D3D3D"/>
<path d="M91.8108 29.9096H95.3276C95.1803 29.0576 93.8927 22.1776 90.5424 19.7946H86.4874L83.3677 29.9929H87.0127L89.0882 22.6516C90.8435 24.7015 91.6955 29.2434 91.8108 29.9096Z" fill="#3D3D3D"/>
<path d="M92.5346 38.8843C91.6121 38.8843 91.4456 38.6473 91.4456 37.8658V37.5391H102.393V32.0299C102.393 31.5559 102.047 31.1843 101.554 31.1843H87.8774V33.7083H98.9149V35.0599H87.9671V38.3206C87.9671 40.2104 89.3252 41.4083 91.3559 41.4083H102.624V38.8843H92.5346Z" fill="#3D3D3D"/>
</svg>
