<svg width="245" height="52" viewBox="0 0 245 52" fill="none" xmlns="http://www.w3.org/2000/svg">
<path d="M22.16 27.31L20.16 5.22998C16.53 6.48998 13.92 9.93998 13.92 14C13.92 14.98 14.08 15.92 14.36 16.81C12.84 15.72 10.98 15.08 8.97001 15.08C5.83 15.08 3.06 16.64 1.38 19.02L22.16 27.31Z" fill="#00AE4D"/>
<path d="M21.58 29.36L0 24.3C0.05 28.14 2.5 31.7 6.36 32.98C7.29 33.29 8.24 33.43 9.17 33.45C7.66 34.55 6.47 36.11 5.83 38.02C4.84 41 5.45 44.12 7.18 46.46L21.58 29.36Z" fill="#00AE4D"/>
<path d="M23.37 30.39L11.98 49.41C15.66 50.53 19.79 49.28 22.19 46C22.77 45.21 23.19 44.35 23.49 43.47C24.08 45.24 25.2 46.86 26.83 48.04C29.36 49.89 32.52 50.26 35.28 49.33L23.37 30.39Z" fill="#00AE4D"/>
<path d="M24.36 27.31L44.76 18.62C42.44 15.55 38.36 14.13 34.5 15.38C33.57 15.68 32.72 16.12 31.96 16.67C32.53 14.89 32.57 12.92 31.95 11.01C30.99 8.03 28.65 5.87 25.87 5L24.36 27.31Z" fill="#00AE4D"/>
<path d="M24.97 29.2L39.55 45.9C41.75 42.75 41.83 38.42 39.45 35.14C38.87 34.35 38.19 33.68 37.44 33.12C39.31 33.11 41.19 32.53 42.82 31.35C45.36 29.51 46.69 26.62 46.65 23.71L24.97 29.2Z" fill="#00AE4D"/>
<path d="M78.725 8.075V31.225H81.875V8.075H78.725ZM75.625 16.975V19.65H79.475V16.975H75.625ZM73.55 8.475V30.125H76.625V8.475H73.55ZM62.65 23.275V26H64.275C67.25 26 69.7 25.925 72.5 25.375L72.25 22.675C69.5 23.175 67.125 23.275 64.275 23.275H62.65ZM62.65 10.75V24.575H65.95V13.425H71.2V10.75H62.65ZM97.398 14.05V16.725H102.798V14.05H97.398ZM101.048 8.1V24.975H104.373V8.1H101.048ZM89.098 28.175V30.825H104.898V28.175H89.098ZM89.098 23.55V29.75H92.423V23.55H89.098ZM90.348 11.125V12.575C90.348 15.5 88.698 18.525 84.873 19.775L86.548 22.425C90.998 20.95 93.048 16.925 93.048 12.575V11.125H90.348ZM91.048 11.125V12.575C91.048 16.7 93.023 20.55 97.323 21.975L98.948 19.375C95.298 18.15 93.723 15.275 93.723 12.575V11.125H91.048ZM85.773 9.65V12.275H98.223V9.65H85.773ZM108.021 18.95V21.6H128.971V18.95H108.021ZM116.846 15.475V19.975H120.146V15.475H116.846ZM110.546 14.425V17.05H126.596V14.425H110.546ZM110.546 9.075V16.1H113.846V11.675H126.471V9.075H110.546ZM118.421 22.75C113.421 22.75 110.371 24.275 110.371 27C110.371 29.725 113.421 31.25 118.421 31.25C123.421 31.25 126.446 29.725 126.446 27C126.446 24.275 123.421 22.75 118.421 22.75ZM118.421 25.25C121.521 25.25 123.096 25.825 123.096 27C123.096 28.2 121.521 28.725 118.421 28.725C115.321 28.725 113.746 28.2 113.746 27C113.746 25.825 115.321 25.25 118.421 25.25ZM139.769 19.2V22.425H143.094V19.2H139.769ZM130.994 17.25V19.85H151.919V17.25H130.994ZM133.569 8.75V16.025H149.269V8.75H133.569ZM145.994 11.325V13.475H136.844V11.325H145.994ZM133.394 21.3V23.775H146.119V24.95H133.419V29.3H136.694V27.25H149.394V21.3H133.394ZM133.419 28.575V31.075H149.994V28.575H133.419ZM154.017 25.85V28.55H174.967V25.85H154.017ZM162.792 20.9V26.5H166.117V20.9H162.792ZM156.217 9.55V21.6H172.692V9.55H169.392V13.1H159.517V9.55H156.217ZM159.517 15.7H169.392V18.95H159.517V15.7ZM177.89 10.95V13.6H196.99V10.95H177.89ZM177.015 26.225V28.9H197.965V26.225H177.015ZM185.79 23.175V27.275H189.09V23.175H185.79ZM187.415 14.6C182.59 14.6 179.565 16.275 179.565 19.125C179.565 21.975 182.59 23.65 187.415 23.65C192.24 23.65 195.265 21.975 195.265 19.125C195.265 16.275 192.24 14.6 187.415 14.6ZM187.415 17.175C190.315 17.175 191.865 17.8 191.865 19.125C191.865 20.45 190.315 21.05 187.415 21.05C184.515 21.05 182.965 20.45 182.965 19.125C182.965 17.8 184.515 17.175 187.415 17.175ZM185.79 8.325V12.6H189.09V8.325H185.79ZM209.188 13.35V16.025H212.863V13.35H209.188ZM216.563 8.075V25.4H219.713V8.075H216.563ZM211.938 8.45V24.7H215.063V8.45H211.938ZM204.138 28.175V30.825H220.313V28.175H204.138ZM204.138 23.375V29.85H207.463V23.375H204.138ZM204.063 9.625V12.6C204.063 15.35 202.838 18.35 199.688 19.9L201.488 22.425C205.163 20.7 206.663 16.675 206.663 12.6V9.625H204.063ZM204.738 9.625V12.6C204.738 16.55 206.038 20.25 209.463 21.85L211.288 19.325C208.388 17.925 207.288 15.275 207.288 12.6V9.625H204.738ZM239.111 8.05V31.275H242.411V8.05H239.111ZM235.136 16.2V18.9H239.486V16.2H235.136ZM224.036 23.35V26.05H225.886C229.786 26.05 232.786 25.95 236.136 25.425L235.836 22.775C232.561 23.3 229.711 23.35 225.886 23.35H224.036ZM224.036 10V24.2H227.336V12.7H234.761V10H224.036ZM226.586 16.45V19.05H233.961V16.45H226.586Z" fill="white"/>
<path d="M62.5 48H65.32C68.635 48 70.435 45.96 70.435 42.465C70.435 38.97 68.635 37.005 65.245 37.005H62.5V48ZM63.895 46.86V38.145H65.14C67.72 38.145 69.01 39.675 69.01 42.465C69.01 45.255 67.72 46.86 65.14 46.86H63.895ZM74.5821 48.21C75.5871 48.21 76.5021 47.685 77.2671 47.04H77.3271L77.4471 48H78.5721V43.005C78.5721 40.98 77.7321 39.66 75.7371 39.66C74.4321 39.66 73.2921 40.23 72.5421 40.71L73.0821 41.67C73.7121 41.235 74.5671 40.785 75.5271 40.785C76.8621 40.785 77.1921 41.79 77.1921 42.84C73.7271 43.23 72.1971 44.115 72.1971 45.885C72.1971 47.355 73.2171 48.21 74.5821 48.21ZM74.9571 47.1C74.1621 47.1 73.5321 46.725 73.5321 45.795C73.5321 44.745 74.4471 44.07 77.1921 43.755V46.02C76.4121 46.725 75.7521 47.1 74.9571 47.1ZM84.4443 48.21C85.5543 48.21 86.4093 47.835 87.1293 47.37L86.6343 46.455C86.0343 46.86 85.3893 47.115 84.6093 47.115C83.0493 47.115 81.9993 45.99 81.8943 44.265H87.3843C87.4293 44.055 87.4443 43.77 87.4443 43.485C87.4443 41.145 86.2743 39.66 84.2043 39.66C82.3293 39.66 80.5443 41.295 80.5443 43.95C80.5443 46.62 82.2693 48.21 84.4443 48.21ZM81.8793 43.275C82.0593 41.67 83.0793 40.755 84.2193 40.755C85.5093 40.755 86.2443 41.64 86.2443 43.275H81.8793ZM88.61 51.645C90.215 51.645 90.845 50.595 90.845 48.945V39.855H89.465V48.93C89.465 49.92 89.27 50.55 88.46 50.55C88.175 50.55 87.89 50.46 87.695 50.4L87.425 51.435C87.695 51.54 88.115 51.645 88.61 51.645ZM90.14 38.175C90.665 38.175 91.055 37.83 91.055 37.26C91.055 36.735 90.665 36.39 90.14 36.39C89.615 36.39 89.24 36.735 89.24 37.26C89.24 37.83 89.615 38.175 90.14 38.175ZM96.8808 48.21C97.9908 48.21 98.8458 47.835 99.5658 47.37L99.0708 46.455C98.4708 46.86 97.8258 47.115 97.0458 47.115C95.4858 47.115 94.4358 45.99 94.3308 44.265H99.8208C99.8658 44.055 99.8808 43.77 99.8808 43.485C99.8808 41.145 98.7108 39.66 96.6408 39.66C94.7658 39.66 92.9808 41.295 92.9808 43.95C92.9808 46.62 94.7058 48.21 96.8808 48.21ZM94.3158 43.275C94.4958 41.67 95.5158 40.755 96.6558 40.755C97.9458 40.755 98.6808 41.64 98.6808 43.275H94.3158ZM105.066 48.21C107.061 48.21 108.831 46.635 108.831 43.95C108.831 41.22 107.061 39.66 105.066 39.66C103.056 39.66 101.286 41.22 101.286 43.95C101.286 46.635 103.056 48.21 105.066 48.21ZM105.066 47.07C103.641 47.07 102.696 45.81 102.696 43.95C102.696 42.06 103.641 40.8 105.066 40.8C106.476 40.8 107.421 42.06 107.421 43.95C107.421 45.81 106.476 47.07 105.066 47.07ZM110.998 48H112.363V42.09C113.173 41.28 113.758 40.845 114.583 40.845C115.663 40.845 116.128 41.49 116.128 43.02V48H117.508V42.84C117.508 40.77 116.728 39.66 115.018 39.66C113.893 39.66 113.053 40.275 112.288 41.04H112.243L112.108 39.855H110.998V48ZM123.628 48H124.888V41.925C124.888 40.965 124.783 39.645 124.708 38.67H124.768L125.638 41.175L127.723 46.905H128.653L130.738 41.175L131.608 38.67H131.683C131.608 39.645 131.503 40.965 131.503 41.925V48H132.793V37.005H131.113L129.028 42.9C128.773 43.65 128.533 44.415 128.263 45.195H128.203C127.933 44.415 127.678 43.65 127.408 42.9L125.293 37.005H123.628V48ZM138.966 48.21C140.076 48.21 140.931 47.835 141.651 47.37L141.156 46.455C140.556 46.86 139.911 47.115 139.131 47.115C137.571 47.115 136.521 45.99 136.416 44.265H141.906C141.951 44.055 141.966 43.77 141.966 43.485C141.966 41.145 140.796 39.66 138.726 39.66C136.851 39.66 135.066 41.295 135.066 43.95C135.066 46.62 136.791 48.21 138.966 48.21ZM136.401 43.275C136.581 41.67 137.601 40.755 138.741 40.755C140.031 40.755 140.766 41.64 140.766 43.275H136.401ZM146.331 48.21C146.841 48.21 147.381 48.06 147.831 47.895L147.561 46.875C147.306 46.98 146.931 47.1 146.646 47.1C145.701 47.1 145.386 46.515 145.386 45.525V40.965H147.591V39.855H145.386V37.56H144.231L144.081 39.855L142.806 39.945V40.965H144.021V45.495C144.021 47.115 144.591 48.21 146.331 48.21ZM149.436 48H150.801V42.78C151.341 41.385 152.181 40.89 152.856 40.89C153.186 40.89 153.366 40.935 153.651 41.025L153.906 39.825C153.636 39.705 153.396 39.66 153.036 39.66C152.121 39.66 151.281 40.305 150.726 41.34H150.681L150.546 39.855H149.436V48ZM158.211 48.21C160.206 48.21 161.976 46.635 161.976 43.95C161.976 41.22 160.206 39.66 158.211 39.66C156.201 39.66 154.431 41.22 154.431 43.95C154.431 46.635 156.201 48.21 158.211 48.21ZM158.211 47.07C156.786 47.07 155.841 45.81 155.841 43.95C155.841 42.06 156.786 40.8 158.211 40.8C159.621 40.8 160.566 42.06 160.566 43.95C160.566 45.81 159.621 47.07 158.211 47.07ZM164.143 51.435H165.508V48.69L165.478 47.265C166.213 47.865 166.978 48.21 167.713 48.21C169.588 48.21 171.253 46.59 171.253 43.815C171.253 41.295 170.128 39.66 168.013 39.66C167.068 39.66 166.168 40.185 165.433 40.8H165.388L165.253 39.855H164.143V51.435ZM167.503 47.055C166.963 47.055 166.243 46.83 165.508 46.215V41.925C166.303 41.19 166.993 40.8 167.683 40.8C169.228 40.8 169.843 42.015 169.843 43.83C169.843 45.84 168.838 47.055 167.503 47.055ZM176.609 48.21C178.604 48.21 180.374 46.635 180.374 43.95C180.374 41.22 178.604 39.66 176.609 39.66C174.599 39.66 172.829 41.22 172.829 43.95C172.829 46.635 174.599 48.21 176.609 48.21ZM176.609 47.07C175.184 47.07 174.239 45.81 174.239 43.95C174.239 42.06 175.184 40.8 176.609 40.8C178.019 40.8 178.964 42.06 178.964 43.95C178.964 45.81 178.019 47.07 176.609 47.07ZM183.981 48.21C184.356 48.21 184.566 48.15 184.761 48.09L184.581 47.04C184.416 47.07 184.356 47.07 184.296 47.07C184.086 47.07 183.906 46.905 183.906 46.47V36.075H182.541V46.38C182.541 47.55 182.946 48.21 183.981 48.21ZM186.804 48H188.169V39.855H186.804V48ZM187.494 38.175C188.019 38.175 188.409 37.83 188.409 37.26C188.409 36.735 188.019 36.39 187.494 36.39C186.954 36.39 186.579 36.735 186.579 37.26C186.579 37.83 186.954 38.175 187.494 38.175ZM193.485 48.21C193.995 48.21 194.535 48.06 194.985 47.895L194.715 46.875C194.46 46.98 194.085 47.1 193.8 47.1C192.855 47.1 192.54 46.515 192.54 45.525V40.965H194.745V39.855H192.54V37.56H191.385L191.235 39.855L189.96 39.945V40.965H191.175V45.495C191.175 47.115 191.745 48.21 193.485 48.21ZM198.054 48.21C199.059 48.21 199.974 47.685 200.739 47.04H200.799L200.919 48H202.044V43.005C202.044 40.98 201.204 39.66 199.209 39.66C197.904 39.66 196.764 40.23 196.014 40.71L196.554 41.67C197.184 41.235 198.039 40.785 198.999 40.785C200.334 40.785 200.664 41.79 200.664 42.84C197.199 43.23 195.669 44.115 195.669 45.885C195.669 47.355 196.689 48.21 198.054 48.21ZM198.429 47.1C197.634 47.1 197.004 46.725 197.004 45.795C197.004 44.745 197.919 44.07 200.664 43.755V46.02C199.884 46.725 199.224 47.1 198.429 47.1ZM204.631 48H205.996V42.09C206.806 41.28 207.391 40.845 208.216 40.845C209.296 40.845 209.761 41.49 209.761 43.02V48H211.141V42.84C211.141 40.77 210.361 39.66 208.651 39.66C207.526 39.66 206.686 40.275 205.921 41.04H205.876L205.741 39.855H204.631V48ZM221.416 48.21C222.841 48.21 223.906 47.64 224.776 46.62L224.026 45.75C223.321 46.53 222.511 46.98 221.476 46.98C219.376 46.98 218.056 45.255 218.056 42.48C218.056 39.735 219.436 38.025 221.521 38.025C222.451 38.025 223.186 38.445 223.756 39.06L224.521 38.16C223.876 37.455 222.841 36.81 221.506 36.81C218.716 36.81 216.631 38.97 216.631 42.51C216.631 46.08 218.671 48.21 221.416 48.21ZM226.706 48H228.071V39.855H226.706V48ZM227.396 38.175C227.921 38.175 228.311 37.83 228.311 37.26C228.311 36.735 227.921 36.39 227.396 36.39C226.856 36.39 226.481 36.735 226.481 37.26C226.481 37.83 226.856 38.175 227.396 38.175ZM233.387 48.21C233.897 48.21 234.437 48.06 234.887 47.895L234.617 46.875C234.362 46.98 233.987 47.1 233.702 47.1C232.757 47.1 232.442 46.515 232.442 45.525V40.965H234.647V39.855H232.442V37.56H231.287L231.137 39.855L229.862 39.945V40.965H231.077V45.495C231.077 47.115 231.647 48.21 233.387 48.21ZM236.611 51.525C238.246 51.525 239.086 50.295 239.656 48.69L242.731 39.855H241.396L239.926 44.385C239.716 45.12 239.476 45.93 239.251 46.68H239.176C238.906 45.93 238.636 45.105 238.381 44.385L236.716 39.855H235.306L238.576 48.015L238.396 48.63C238.051 49.635 237.466 50.385 236.551 50.385C236.326 50.385 236.086 50.325 235.936 50.265L235.666 51.36C235.921 51.465 236.236 51.525 236.611 51.525Z" fill="white"/>
</svg>
