<svg width="40" height="39" viewBox="0 0 40 39" fill="none" xmlns="http://www.w3.org/2000/svg">
<path d="M19.0005 19.1292L17.2856 0.197144C14.1732 1.2775 11.9353 4.23563 11.9353 7.7168C11.9353 8.55708 12.0725 9.36306 12.3125 10.1262C11.0092 9.19157 9.41442 8.64282 7.69099 8.64282C4.99866 8.64282 2.62359 9.98041 1.18311 12.0211L19.0005 19.1292Z" fill="#00AE4D"/>
<path d="M18.5033 20.8869L0 16.5483C0.0428714 19.8409 2.14357 22.8933 5.45325 23.9908C6.25066 24.2566 7.06522 24.3767 7.86262 24.3938C6.56791 25.337 5.54757 26.6746 4.99881 28.3123C4.14996 30.8674 4.67299 33.5426 6.15634 35.549L18.5033 20.8869Z" fill="#00AE4D"/>
<path d="M20.0381 21.7701L10.272 38.0784C13.4273 39.0388 16.9685 37.967 19.0263 35.1546C19.5236 34.4772 19.8838 33.7398 20.141 32.9853C20.6469 34.503 21.6072 35.892 23.0048 36.9038C25.1741 38.49 27.8836 38.8073 30.2501 38.0098L20.0381 21.7701Z" fill="#00AE4D"/>
<path d="M20.8867 19.1292L38.3783 11.6782C36.389 9.04587 32.8907 7.82833 29.581 8.90011C28.7836 9.15734 28.0548 9.53461 27.4032 10.0062C27.8919 8.47997 27.9262 6.79084 27.3946 5.15315C26.5715 2.59801 24.5651 0.745963 22.1814 0L20.8867 19.1292Z" fill="#00AE4D"/>
<path d="M21.4102 20.7498L33.9115 35.0688C35.7978 32.3679 35.8664 28.6553 33.8257 25.8429C33.3284 25.1655 32.7454 24.591 32.1023 24.1109C33.7057 24.1023 35.3177 23.605 36.7153 22.5932C38.8931 21.0156 40.0335 18.5376 39.9992 16.0425L21.4102 20.7498Z" fill="#00AE4D"/>
</svg>
