<svg width="50" height="51" viewBox="0 0 50 51" fill="none" xmlns="http://www.w3.org/2000/svg">
<path d="M50 40.0024C50 45.5244 45.5244 50.002 39.9984 50.002H9.9996C4.47755 50.002 0 45.5244 0 40.0024V10.0016C0 4.47755 4.47755 0 9.9996 0H39.9984C45.5244 0 50 4.47755 50 10.0016V40.0024V40.0024Z" fill="#2FB44A"/>
<path d="M39.6449 3.82422H10.355C6.62041 3.82422 3.59277 6.86184 3.59277 10.6104V26.7093C3.59277 30.4579 6.62041 33.4955 10.355 33.4955H20.4445L23.8875 39.1014C23.8875 39.1014 23.9255 39.1673 23.9994 39.2612C24.2011 39.6067 24.5726 39.8404 24.9999 39.8404C25.4253 39.8404 25.7948 39.6087 25.9965 39.2672C26.0824 39.1653 26.1123 39.0994 26.1123 39.0994L29.5554 33.4935H39.6449C43.3795 33.4935 46.4071 30.4559 46.4071 26.7073V10.6085C46.4071 6.86185 43.3795 3.82422 39.6449 3.82422Z" fill="white"/>
<path d="M13.101 15.6186C13.101 15.6186 11.9327 15.6186 10.8722 16.6511V12.4951H8.25V23.4154H10.8982V22.5606C10.8982 22.5606 11.5233 23.689 13.099 23.689C13.099 23.689 16.7937 23.5532 16.7937 19.6129C16.7957 19.6129 16.6599 15.6186 13.101 15.6186ZM12.5238 21.3823C11.5932 21.3823 10.8383 20.6274 10.8383 19.6967C10.8383 18.7661 11.5932 18.0132 12.5238 18.0132C13.4545 18.0132 14.2074 18.7681 14.2074 19.6967C14.2074 20.6294 13.4545 21.3823 12.5238 21.3823Z" fill="#F47628"/>
<path d="M17.6365 12.25V14.7764C17.6365 14.7764 18.8328 14.7224 18.8328 16.9492V23.4139H21.3591V16.3521C21.3591 16.3541 21.467 12.25 17.6365 12.25Z" fill="#F47628"/>
<path d="M27.5383 15.6533C27.5383 15.6533 23.2065 15.6533 23.2065 19.6975C23.2065 19.6975 23.0667 23.6878 27.5383 23.6878C27.5383 23.6878 31.9699 23.6818 31.9699 19.6975C31.9679 19.6995 32.1117 15.6533 27.5383 15.6533ZM27.5383 21.3831C26.6076 21.3831 25.8527 20.6282 25.8527 19.6975C25.8527 18.7668 26.6076 18.0139 27.5383 18.0139C28.469 18.0139 29.2219 18.7688 29.2219 19.6975C29.2219 20.6302 28.469 21.3831 27.5383 21.3831Z" fill="#F47628"/>
<path d="M39.2015 15.9187V16.6517C39.2015 16.6517 38.4485 15.6531 37.0026 15.6531C37.0026 15.6531 33.294 15.4973 33.294 19.6693C33.294 19.6693 33.252 23.5577 36.9008 23.5577C36.9008 23.5577 38.3886 23.6176 39.2015 22.5592V23.1703C39.2015 23.1703 39.3852 25.0855 37.5319 25.0855H36.9008V27.4082H37.9193C37.9193 27.4082 41.7498 27.4501 41.7498 23.3141V15.9187H39.2015ZM37.6337 21.3828C36.7031 21.3828 35.9501 20.6279 35.9501 19.6973C35.9501 18.7666 36.7031 18.0137 37.6337 18.0137C38.5644 18.0137 39.3173 18.7686 39.3173 19.6973C39.3193 20.6299 38.5644 21.3828 37.6337 21.3828Z" fill="#F47628"/>
</svg>
