<svg width="50" height="50" viewBox="0 0 50 50" fill="none" xmlns="http://www.w3.org/2000/svg">
<g clip-path="url(#clip0_28_73)">
<path d="M25.012 0.378906C14.7313 0.378906 11.7246 0.389512 11.1401 0.437995C9.03033 0.613369 7.71749 0.945556 6.28723 1.65766C5.18499 2.20499 4.3157 2.83944 3.45777 3.7288C1.89532 5.35073 0.948376 7.34612 0.605583 9.71802C0.438921 10.8695 0.390438 11.1043 0.38059 16.986C0.376802 18.9465 0.38059 21.5268 0.38059 24.9876C0.38059 35.26 0.391953 38.2637 0.441194 38.8471C0.611643 40.9 0.933603 42.1917 1.6154 43.6045C2.91839 46.309 5.40695 48.3392 8.33868 49.0967C9.3538 49.3581 10.475 49.502 11.9143 49.5702C12.5242 49.5967 18.7399 49.6157 24.9594 49.6157C31.1789 49.6157 37.3984 49.6081 37.9931 49.5778C39.6597 49.4994 40.6275 49.3695 41.6975 49.093C44.6482 48.3316 47.0913 46.3317 48.4208 43.5893C49.0893 42.2106 49.4283 40.8697 49.5818 38.924C49.6151 38.4997 49.6291 31.7359 49.6291 24.9812C49.6291 18.2253 49.6139 11.474 49.5806 11.0498C49.4253 9.07258 49.0863 7.74308 48.3962 6.33782C47.8299 5.18747 47.2011 4.32841 46.2883 3.45003C44.6592 1.89401 42.6668 0.947071 40.2926 0.604657C39.1423 0.438374 38.9131 0.389133 33.0269 0.378906H25.012Z" fill="url(#paint0_radial_28_73)"/>
<path d="M25.012 0.378906C14.7313 0.378906 11.7246 0.389512 11.1401 0.437995C9.03033 0.613369 7.71749 0.945556 6.28723 1.65766C5.18499 2.20499 4.3157 2.83944 3.45777 3.7288C1.89532 5.35073 0.948376 7.34612 0.605583 9.71802C0.438921 10.8695 0.390438 11.1043 0.38059 16.986C0.376802 18.9465 0.38059 21.5268 0.38059 24.9876C0.38059 35.26 0.391953 38.2637 0.441194 38.8471C0.611643 40.9 0.933603 42.1917 1.6154 43.6045C2.91839 46.309 5.40695 48.3392 8.33868 49.0967C9.3538 49.3581 10.475 49.502 11.9143 49.5702C12.5242 49.5967 18.7399 49.6157 24.9594 49.6157C31.1789 49.6157 37.3984 49.6081 37.9931 49.5778C39.6597 49.4994 40.6275 49.3695 41.6975 49.093C44.6482 48.3316 47.0913 46.3317 48.4208 43.5893C49.0893 42.2106 49.4283 40.8697 49.5818 38.924C49.6151 38.4997 49.6291 31.7359 49.6291 24.9812C49.6291 18.2253 49.6139 11.474 49.5806 11.0498C49.4253 9.07258 49.0863 7.74308 48.3962 6.33782C47.8299 5.18747 47.2011 4.32841 46.2883 3.45003C44.6592 1.89401 42.6668 0.947071 40.2926 0.604657C39.1423 0.438374 38.9131 0.389133 33.0269 0.378906H25.012Z" fill="url(#paint1_radial_28_73)"/>
<path d="M25.0007 6.81836C20.0629 6.81836 19.4432 6.83995 17.5039 6.9282C15.5684 7.01684 14.2472 7.32327 13.0912 7.77288C11.8954 8.23726 10.881 8.85845 9.87043 9.8694C8.8591 10.88 8.2379 11.8943 7.77201 13.0898C7.32126 14.2462 7.01446 15.5677 6.92734 17.5025C6.8406 19.4418 6.81787 20.0619 6.81787 24.9996C6.81787 29.9374 6.83984 30.5551 6.92772 32.4945C7.01673 34.43 7.32316 35.7512 7.77239 36.9072C8.23715 38.103 8.85834 39.1174 9.86929 40.128C10.8795 41.1393 11.8939 41.762 13.0889 42.2264C14.2457 42.676 15.5672 42.9824 17.5024 43.071C19.4417 43.1593 20.061 43.1809 24.9984 43.1809C29.9365 43.1809 30.5543 43.1593 32.4936 43.071C34.4292 42.9824 35.7518 42.676 36.9086 42.2264C38.104 41.762 39.1169 41.1393 40.1271 40.128C41.1384 39.1174 41.7596 38.103 42.2255 36.9076C42.6725 35.7512 42.9793 34.4296 43.0702 32.4949C43.1573 30.5555 43.18 29.9374 43.18 24.9996C43.18 20.0619 43.1573 19.4422 43.0702 17.5029C42.9793 15.5673 42.6725 14.2462 42.2255 13.0901C41.7596 11.8943 41.1384 10.88 40.1271 9.8694C39.1158 8.85807 38.1044 8.23688 36.9075 7.77288C35.7484 7.32327 34.4265 7.01684 32.491 6.9282C30.5516 6.83995 29.9342 6.81836 24.995 6.81836H25.0007ZM23.3696 10.0948C23.8537 10.094 24.3939 10.0948 25.0007 10.0948C29.8551 10.0948 30.4304 10.1122 32.3474 10.1993C34.1201 10.2804 35.0822 10.5766 35.7231 10.8254C36.5715 11.155 37.1764 11.5489 37.8124 12.1852C38.4487 12.8216 38.8427 13.4276 39.173 14.2761C39.4218 14.9162 39.7184 15.8783 39.7991 17.651C39.8862 19.5676 39.9051 20.1433 39.9051 24.9955C39.9051 29.8476 39.8862 30.4233 39.7991 32.3399C39.718 34.1126 39.4218 35.0747 39.173 35.7148C38.8434 36.5633 38.4487 37.1674 37.8124 37.8034C37.176 38.4398 36.5719 38.8337 35.7231 39.1632C35.0829 39.4132 34.1201 39.7086 32.3474 39.7897C30.4308 39.8768 29.8551 39.8958 25.0007 39.8958C20.1459 39.8958 19.5705 39.8768 17.6539 39.7897C15.8812 39.7079 14.9191 39.4117 14.2779 39.1628C13.4294 38.8333 12.8234 38.4394 12.187 37.803C11.5507 37.1667 11.1568 36.5622 10.8265 35.7133C10.5776 35.0732 10.281 34.1111 10.2003 32.3384C10.1132 30.4218 10.0958 29.8461 10.0958 24.9909C10.0958 20.1358 10.1132 19.563 10.2003 17.6464C10.2814 15.8738 10.5776 14.9117 10.8265 14.2708C11.156 13.4223 11.5507 12.8163 12.187 12.1799C12.8234 11.5436 13.4294 11.1497 14.2779 10.8194C14.9188 10.5694 15.8812 10.2739 17.6539 10.1925C19.3311 10.1167 19.9811 10.094 23.3696 10.0902V10.0948ZM34.7057 13.1136C33.5012 13.1136 32.5239 14.0897 32.5239 15.2946C32.5239 16.4991 33.5012 17.4764 34.7057 17.4764C35.9102 17.4764 36.8874 16.4991 36.8874 15.2946C36.8874 14.0901 35.9102 13.1129 34.7057 13.1129V13.1136ZM25.0007 15.6628C19.8444 15.6628 15.6638 19.8433 15.6638 24.9996C15.6638 30.1559 19.8444 34.3346 25.0007 34.3346C30.1569 34.3346 34.336 30.1559 34.336 24.9996C34.336 19.8433 30.1566 15.6628 25.0003 15.6628H25.0007ZM25.0007 18.9392C28.3475 18.9392 31.0611 21.6524 31.0611 24.9996C31.0611 28.3465 28.3475 31.06 25.0007 31.06C21.6534 31.06 18.9402 28.3465 18.9402 24.9996C18.9402 21.6524 21.6534 18.9392 25.0007 18.9392V18.9392Z" fill="white"/>
</g>
<defs>
<radialGradient id="paint0_radial_28_73" cx="0" cy="0" r="1" gradientUnits="userSpaceOnUse" gradientTransform="translate(13.4611 53.4079) rotate(-90) scale(48.7973 45.3977)">
<stop stop-color="#FFDD55"/>
<stop offset="0.1" stop-color="#FFDD55"/>
<stop offset="0.5" stop-color="#FF543E"/>
<stop offset="1" stop-color="#C837AB"/>
</radialGradient>
<radialGradient id="paint1_radial_28_73" cx="0" cy="0" r="1" gradientUnits="userSpaceOnUse" gradientTransform="translate(-7.87076 3.92584) rotate(78.6776) scale(21.8128 89.936)">
<stop stop-color="#3771C8"/>
<stop offset="0.128" stop-color="#3771C8"/>
<stop offset="1" stop-color="#6600FF" stop-opacity="0"/>
</radialGradient>
<clipPath id="clip0_28_73">
<rect width="50" height="49.9985" fill="white"/>
</clipPath>
</defs>
</svg>
