<?xml version="1.0" encoding="utf-8"?>
<!-- Generator: Adobe Illustrator 24.0.1, SVG Export Plug-In . SVG Version: 6.00 Build 0)  -->
<svg version="1.0" id="Layer_1" xmlns="http://www.w3.org/2000/svg" xmlns:xlink="http://www.w3.org/1999/xlink" x="0px" y="0px"
	 viewBox="0 0 359 83" style="enable-background:new 0 0 359 83;" xml:space="preserve">
<style type="text/css">
	.st0{fill:#9F1758;}
	.st1{fill:#FF7F00;}
</style>
<g>
	<path class="st0" d="M183.36,63.24c-1.71,8.23-5.95,13.72-11.71,13.92c-6.21,0.21-10.42-4.92-12.82-13.18
		c-2.53-8.7-3.93-21.88-1.44-33.89c2.2-10.64,6.14-14.95,11.81-15.29c6.65-0.41,11.27,5.47,13.72,15.01
		C185.63,40.41,185.42,53.33,183.36,63.24z M165.47,11.58c-14.77,1.65-28.32,13.03-27.6,36.03c0.44,14.06,5.06,23.38,15.01,29.11
		c10.46,6.02,33.99,7.02,44.86-10.16c5.9-9.32,6.34-21.71,4.38-31.84c-1.64-8.45-5.38-15.09-11.71-19.12
		C185.19,12.28,175.96,10.41,165.47,11.58z"/>
	<path class="st0" d="M75.16,13.2v-0.15l36.31,0.02c9.12,0,13.85,3.22,16.23,7.41c1.75,3.08,3.04,10.15-1.47,16.33
		c-3.39,4.64-9.52,6.37-11.92,7.03c4.28,7.28,18.34,28.49,23.9,35.03c0,0-4.8,0.51-13.52,0.28c-4.63-0.12-8-1.35-11.45-6.54
		c-3.87-5.81-11.77-21.39-15.29-28.98c1.61-0.24,3.79-0.71,5.74-1.44c3.21-1.21,7.56-3.98,7.75-11.45
		c0.16-6.13-2.46-10.11-5.67-11.78c-3.45-1.79-9.38-1.73-11.37-0.68c-0.25,5.52-0.1,44.64-0.1,44.64c0,4.25,0.24,11.95,1.9,15.81
		v0.12H75.78v-0.11c1.85-3.92,1.79-9.44,2.06-14.49c0.37-7.02,0.28-29.33-0.05-38.54C77.63,21.19,76.88,15.17,75.16,13.2z"/>
	<path class="st1" d="M42.9,1.17v0.83c8.93,4.97,17.75,20.11,21.41,28.37h1.39V1.17H42.9z"/>
	<path class="st0" d="M36.44,2.19V1.17c-6.26,0-11.53,1.16-16.95,3.68c-24.43,11.36-25.5,56.6,3.35,70.87
		c17.51,8.66,37.19,4.22,43.26,0.41l2.01-4.69c0,0-6.83,2.69-18.77-1.37c-15-5.1-24.52-21.9-24.52-41.27
		C24.81,14.54,29.56,4.58,36.44,2.19z"/>
	<g>
		<path class="st0" d="M275.02,78.86h-17.08c0,0-6.2-23.7-7.85-29.63c-2.72,8.6-9.05,29.63-9.05,29.63h-15.09
			c-4.56-21.64-8.28-34.38-12.44-48.3c-2.67-8.93-5.53-14.5-8.34-17.34l-0.02-0.16c0,0,17.23,0,18.43,0c1.21,0,1.91,0.75,2.18,1.58
			c2.62,8.07,9.41,33.93,13.37,51.27c1.01-2.98,8.59-24.74,7.13-30.73c-2.49-10.19-5.54-19.16-8.18-21.98l0.01-0.14l20.03-0.01
			c0.3,2.47,0.98,5.44,1.84,9.84C262.76,37.24,268.76,60.05,275.02,78.86z"/>
		<path class="st0" d="M270.81,13.2l0-0.14h21.13c-3.82,8.76-10.12,24.37-12.64,32.43l-0.8-0.14
			C277.92,31.99,273.94,16.52,270.81,13.2z"/>
	</g>
	<path class="st0" d="M354.41,78.87c-0.42-10.11-0.45-43.32,0.19-53.04c0.27-4.11,1.03-8.75,2.13-12.65v-0.13l-12.92,0.01v0.14
		c1.25,3.17,2.23,8.07,2.51,12.66c0.27,4.49,0.32,22.46,0.33,32.18c-11.19-17.61-27.14-45-27.14-45h-21.01l0,0.17
		c2.61,3.56,3.59,9.72,3.76,15.77c0.15,5.56,0.42,24.82-0.53,36.3c-0.34,4.09-1.26,9.59-2.48,13.44l-0.01,0.14l13.52-0.01l0-0.13
		c-1.16-3.68-2.13-8.83-2.4-13.2c-0.33-5.36-0.33-36.57-0.33-36.57c6.07,10.04,29.49,49.89,29.49,49.89L354.41,78.87z"/>
</g>
</svg>
