<?xml version="1.0" encoding="utf-8"?>
<!-- Generator: Adobe Illustrator 24.0.1, SVG Export Plug-In . SVG Version: 6.00 Build 0)  -->
<svg version="1.1" id="Layer_1" xmlns="http://www.w3.org/2000/svg" xmlns:xlink="http://www.w3.org/1999/xlink" x="0px" y="0px"
	 viewBox="0 0 48 48" style="enable-background:new 0 0 48 48;" xml:space="preserve">
<path d="M23,42l-2-1.8c-3.5-3.2-6.4-6-8.8-8.4s-4.1-4.4-5.5-6.3s-2.3-3.5-2.9-5c-0.5-1.5-0.8-3-0.8-4.5c0-3,1-5.5,3-7.5s4.5-3,7.5-3
	c1.9,0,3.7,0.4,5.3,1.3c1.6,0.9,3,2.2,4.2,3.9c1.4-1.8,2.9-3.1,4.5-4s3.3-1.3,5-1.3c3,0,5.5,1,7.5,3c2,2,3,4.5,3,7.5
	c0,1.5-0.3,3-0.8,4.6c-0.5,1.5-1.5,3.2-2.9,5c-1.4,1.9-3.2,4-5.5,6.3c-2.3,2.4-5.2,5.1-8.8,8.4L23,42z M23,38c3.4-3.1,6.1-5.8,8.3-8
	s3.9-4.2,5.2-5.8s2.2-3.1,2.7-4.5c0.5-1.3,0.8-2.6,0.8-3.9c0-2.2-0.7-4-2.1-5.4c-1.4-1.4-3.2-2.1-5.4-2.1c-1.7,0-3.3,0.5-4.8,1.6
	s-2.6,2.5-3.5,4.4h-2.5c-0.9-1.9-2-3.3-3.5-4.4s-3.1-1.6-4.8-1.6c-2.2,0-4,0.7-5.4,2.1S6,13.7,6,15.9c0,1.3,0.3,2.6,0.8,3.9
	c0.5,1.3,1.4,2.8,2.7,4.5c1.3,1.7,3,3.6,5.2,5.8S19.7,34.9,23,38z"/>
</svg>
