<svg xmlns="http://www.w3.org/2000/svg" width="255.425" height="51.924" viewBox="0 0 255.425 51.924">
  <g id="그룹_8" data-name="그룹 8" transform="translate(3596 234)">
    <path id="path178" d="M414.25,673.228a13.305,13.305,0,0,0-5.439-1.536c-1.536,0-2.519.555-2.519,1.411,0,2.594,8.738,1.863,8.738,7.857,0,3.3-2.769,5.213-6.6,5.213a11.642,11.642,0,0,1-6.2-1.663v-3.7c2.469,1.638,3.979,2.216,5.868,2.216,1.636,0,2.519-.578,2.519-1.586,0-2.821-8.739-1.788-8.739-7.957,0-2.972,2.569-4.935,6.548-4.935a14.041,14.041,0,0,1,5.816,1.335v3.348" transform="translate(-3942.163 -877.17)" fill="#fff"/>
    <path id="path180" d="M436.089,687.041c-.378,0-.6-.227-.6-.806v-5.288c0-2.544-1.989-3.525-4.91-3.525a9.44,9.44,0,0,0-5.036,1.409V681.8a6.338,6.338,0,0,1,4.28-1.939c1.586,0,2.091.856,2.014,1.939-4.859,1.511-6.9,2.066-6.9,4.835a3.1,3.1,0,0,0,3.249,2.846,6.485,6.485,0,0,0,3.827-1.31c.252.932.831,1.31,2.039,1.31a7.611,7.611,0,0,0,3.425-1.058v-2.041C436.617,686.991,436.34,687.041,436.089,687.041Zm-4.257-.6a3.089,3.089,0,0,1-2.014.881,1.21,1.21,0,0,1-1.183-1.234c0-1.158,1.033-1.663,3.2-2.443v2.8" transform="translate(-3950.761 -880.482)" fill="#fff"/>
    <path id="path182" d="M444.205,677.782h3.9l2.467,6.4,2.494-6.4h3.878l-5.338,11.836h-2.039l-5.363-11.836" transform="translate(-3957.951 -880.616)" fill="#fff"/>
    <path id="path184" d="M469.06,684.044H477.4c.177-4.23-2.619-6.622-5.993-6.622a5.858,5.858,0,0,0-6.119,6.069c0,3.625,2.644,5.993,6.724,5.993a8.412,8.412,0,0,0,5.188-1.536v-2.293a6.817,6.817,0,0,1-4.307,1.663C470.6,687.319,469.186,686.11,469.06,684.044Zm2.594-4.457a2.5,2.5,0,0,1,2.519,2.544h-5.037a2.468,2.468,0,0,1,2.519-2.544" transform="translate(-3965.815 -880.482)" fill="#fff"/>
    <path id="path186" d="M505.539,678.1h-4.23v4.785a1.687,1.687,0,0,0,1.788,1.862,5.078,5.078,0,0,0,2.442-.679v2.644a8.268,8.268,0,0,1-3.374.73c-2.417,0-4.508-1.108-4.508-4.357V678.1H496V677.4l4.86-5.44h.453v3.652h4.23V678.1" transform="translate(-3977.273 -878.443)" fill="#fff"/>
    <path id="path188" d="M517.15,676.185h.05a4.487,4.487,0,0,1,3.677-1.939,4.069,4.069,0,0,1,4.255,4.432v7.4H521.48v-6.623c0-1.737-.755-2.542-1.889-2.542-.856,0-1.586.528-2.442,1.763v7.4H513.5V668.907h3.652v7.277" transform="translate(-3983.803 -877.305)" fill="#fff"/>
    <path id="path190" d="M538.877,684.044h8.335c.176-4.23-2.619-6.622-5.993-6.622a5.857,5.857,0,0,0-6.119,6.069c0,3.625,2.644,5.993,6.722,5.993a8.407,8.407,0,0,0,5.188-1.536v-2.293a6.81,6.81,0,0,1-4.305,1.663C540.413,687.319,539,686.11,538.877,684.044Zm2.592-4.457a2.5,2.5,0,0,1,2.519,2.544h-5.036a2.467,2.467,0,0,1,2.517-2.544" transform="translate(-3991.862 -880.482)" fill="#fff"/>
    <path id="path192" d="M583.963,684.459a13.334,13.334,0,0,1-6.749,1.713c-6.672,0-10-4.332-10-8.764,0-4.583,3.752-8.863,10.324-8.863a12.109,12.109,0,0,1,6.221,1.511v3.827a11.984,11.984,0,0,0-5.918-1.763c-3.652,0-6.221,2.166-6.221,5.213,0,3.072,2.544,5.263,6.12,5.263,2.241,0,3.752-.705,6.219-1.889v3.752" transform="translate(-4003.844 -877.17)" fill="#fff"/>
    <path id="path194" d="M601.637,676.185h.05a4.488,4.488,0,0,1,3.677-1.939,4.069,4.069,0,0,1,4.255,4.432v7.4h-3.652v-6.623c0-1.737-.755-2.542-1.889-2.542-.856,0-1.586.528-2.442,1.763v7.4h-3.652V668.907h3.652v7.277" transform="translate(-4015.323 -877.305)" fill="#fff"/>
    <path id="path196" d="M620.63,689.392h3.651V677.783H620.63Z" transform="translate(-4023.771 -880.616)" fill="#fff"/>
    <path id="path198" d="M624.338,670.559a2.014,2.014,0,1,1-2.014-2.014,2.021,2.021,0,0,1,2.014,2.014" transform="translate(-4023.652 -877.17)" fill="#fff"/>
    <path id="path200" d="M630.713,686.081h3.651V668.907h-3.651Z" transform="translate(-4027.533 -877.305)" fill="#fff"/>
    <path id="path202" d="M648.333,668.907v6.069a6.748,6.748,0,0,0-3.022-.73c-3.324,0-5.641,2.467-5.641,6.018,0,3.475,2.316,6.044,5.439,6.044a4.762,4.762,0,0,0,3.224-1.158v.931h3.652V668.907Zm0,14a3.062,3.062,0,0,1-2.166.956c-1.711,0-2.795-1.411-2.795-3.525,0-2.316,1.083-3.652,2.92-3.652a3.949,3.949,0,0,1,2.041.68v5.54" transform="translate(-4030.875 -877.305)" fill="#fff"/>
    <path id="path204" d="M667.092,680.973h.05c1.081-2.417,2.291-3.55,3.7-3.55a3.97,3.97,0,0,1,2.418,1.056l-1.008,3.224a4.2,4.2,0,0,0-2.166-.856c-1.334,0-2.19,1.259-3,3.4v5.011H663.44V677.648h3.652v3.324" transform="translate(-4039.742 -880.482)" fill="#fff"/>
    <path id="path206" d="M683.325,684.044h8.335c.176-4.23-2.619-6.622-5.993-6.622a5.857,5.857,0,0,0-6.119,6.069c0,3.625,2.644,5.993,6.724,5.993a8.406,8.406,0,0,0,5.186-1.536v-2.293a6.811,6.811,0,0,1-4.305,1.663C684.861,687.319,683.451,686.11,683.325,684.044Zm2.594-4.457a2.5,2.5,0,0,1,2.517,2.544H683.4a2.468,2.468,0,0,1,2.519-2.544" transform="translate(-4045.752 -880.482)" fill="#fff"/>
    <path id="path208" d="M705.482,679.309a4.676,4.676,0,0,1,3.777-1.887,4.064,4.064,0,0,1,4.23,4.457v7.377h-3.652V682.18c0-1.636-.781-2.317-1.812-2.317-.907,0-1.588.478-2.544,1.914v7.479H701.83V677.648h3.652v1.661" transform="translate(-4054.065 -880.482)" fill="#fff"/>
    <path id="path210" d="M359.17,642.229c2.315-2.381,3.343-3.483,3.182-4.135a2.188,2.188,0,0,0-1.323-1.281,3.381,3.381,0,0,0-2.459-.29,8.345,8.345,0,0,0-1.3,1.185l-.73.716h0c-.4-.469-.829-.939-1.252-1.362a23.074,23.074,0,0,0-11.236-6.181,7.076,7.076,0,0,0-6.084-2.787,6.852,6.852,0,0,0-4.879,2.837,25.885,25.885,0,0,0-12.018,6.506v0a5.343,5.343,0,0,0-3.255.371,1.632,1.632,0,0,0-1.014.989c-.075.3.016.774,1.124,2.229v0a25.5,25.5,0,0,0-4.893,16.164,23.291,23.291,0,0,0,6.747,15.385,22.961,22.961,0,0,0,4.8,3.677h0a28.4,28.4,0,0,0,26.47.881l.016-.006a1.439,1.439,0,0,0,.693-1.853l-.083-.229c-1.124-3.07-4.547-12.418-1.726-20.538,1.182-3.4,4.153-6.9,6.7-9.631h0a22.651,22.651,0,0,1,2.7,13.285,20.7,20.7,0,0,1-4.914,11.374h0a.485.485,0,0,0-.133.335.82.82,0,0,0,.025.157l.216.614a.49.49,0,0,0,.817.161h.016c7.221-7.967,8.805-19.507,3.816-28.574h0ZM328.475,659.78a46.889,46.889,0,0,0-1.548,13.756v0a23.442,23.442,0,0,1-4.564-3.545,23.029,23.029,0,0,1-6.638-13.758,21.346,21.346,0,0,1,3.249-13.9h0c.826.989,1.829,2.133,2.879,3.327a71.628,71.628,0,0,1,6.855,8.548c.793,1.335.408,2.932-.232,5.578Zm25.394-18.872c-5.434,4.761-10.418,7.2-14.8,7.232a17.8,17.8,0,0,1-10.358-3.7,40.706,40.706,0,0,1-6.376-5.816l-.133-.143h0a20.77,20.77,0,0,1,9.57-5.061s0,0,0,0h0s0,0,0,0a10.43,10.43,0,0,0-.508,4.318,9.822,9.822,0,0,0,3.3,6.675,6.586,6.586,0,0,0,9.586-.839,9.812,9.812,0,0,0,2.092-7.147,10.843,10.843,0,0,0-.227-1.459h0a23.189,23.189,0,0,1,6.685,4.677c.4.4.79.82,1.169,1.26h0" transform="translate(-3909.003 -862.069)" fill="#ed1b2d"/>
  </g>
</svg>
