<svg xmlns="http://www.w3.org/2000/svg" width="231.352" height="129.447" viewBox="0 0 231.352 129.447">
  <g id="img03" transform="translate(-909.975 -183.35)">
    <g id="그룹_4" data-name="그룹 4">
      <path id="패스_1" data-name="패스 1" d="M914.324,279.624a11.158,11.158,0,0,0,10.731-3.93l1.371,1.531a12.184,12.184,0,0,1-8.114,4.236,12.452,12.452,0,0,1,6.209,7.19l-1.891.889c-.882-3.548-4.549-7.081-8.712-7.933l-3.943-.806.405-1.984Zm-3.769-11.388,22.019,4.506-.411,2.008-22.019-4.505Z" fill="#fff"/>
      <path id="패스_2" data-name="패스 2" d="M929.627,253.592l-4.493,9.466-9.421-4.472,4.494-9.466Zm-8.788-1.956-2.776,5.851,6.438,3.056,2.777-5.852Zm15.073-2.535-.879,1.852-14.551-6.906.881-1.853Zm3.814,1.063,1.491.708-6.478,13.645-6.393-3.035.88-1.853,4.9,2.328Z" fill="#fff"/>
      <path id="패스_3" data-name="패스 3" d="M940.131,227.863c2.423,1.974,2.512,5.27.3,7.984-2.2,2.694-5.455,3.295-7.878,1.321-2.444-1.988-2.5-5.289-.3-7.982C934.463,226.472,937.688,225.875,940.131,227.863Zm-6.315,7.754c1.609,1.311,3.806.908,5.259-.875,1.468-1.8,1.4-4.017-.208-5.327-1.628-1.327-3.79-.928-5.258.876C932.156,232.073,932.188,234.292,933.816,235.617Zm4.1-16L955.345,233.8l-1.294,1.59L936.624,221.2Zm.827,24.046a100.837,100.837,0,0,0,8.617-11.81l1.294.827a82.39,82.39,0,0,1-8.416,11.879Z" fill="#fff"/>
      <path id="패스_4" data-name="패스 4" d="M964.091,203.98l-9.618,6.124-.873-1.371,3.964-2.525-1.342-2.109,1.709-1.088,1.342,2.11,3.923-2.5Zm-.035,10.515c-2.383,1.518-4.855,1.313-6.118-.669-1.235-1.941-.387-4.288,2-5.806s4.847-1.278,6.084.662C967.279,210.665,966.439,212.978,964.056,214.495Zm-.819-1.286c1.478-.94,1.992-2.365,1.24-3.546-.738-1.161-2.248-1.3-3.725-.356-1.5.954-1.99,2.365-1.253,3.525C960.251,214.013,961.74,214.162,963.237,213.209Zm8.113-3.09-1.646,1.048-6.956-10.926,1.645-1.048,3.048,4.788,2.4-1.531-3.276-5.146,1.666-1.061,7.627,11.981-1.665,1.061-3.452-5.421-2.4,1.531Zm6.927,1.665c1.344,2.11-.287,4.808-4.232,7.32s-7.08,2.847-8.423.738c-1.355-2.131.275-4.829,4.221-7.341S976.923,209.654,978.277,211.784Zm-1.728,1.1c-.806-1.266-2.993-.882-5.861.944-2.89,1.84-4.163,3.658-3.357,4.924.792,1.245,2.978.86,5.869-.98C976.068,215.949,977.341,214.13,976.549,212.886Z" fill="#fff"/>
      <path id="패스_5" data-name="패스 5" d="M999.412,196.537l.539,1.587-19.226,6.525-.538-1.586,8.666-2.941-.861-2.533-6.108,2.073-2.693-7.933,1.917-.65.821,2.415,10.323-3.5-.819-2.415,1.918-.651,2.691,7.931-6.108,2.074.86,2.534Zm-16.133.935,10.324-3.5-.837-2.463-10.323,3.5Zm.3,8.506,14.7-4.991,2.251,6.63-1.942.659-1.719-5.067-12.764,4.332Z" fill="#fff"/>
      <path id="패스_6" data-name="패스 6" d="M1024.546,191.837l.142,1.645-20.231,1.735-.141-1.644ZM1006.121,188c-.215-2.516,2.608-4.139,7.516-4.559s7.965.7,8.181,3.213-2.608,4.114-7.517,4.536S1006.337,190.513,1006.121,188Zm3.636,16.052,13.8-1.183.136,1.594-15.8,1.354-.46-5.356,13.106-1.124-.171-1.993-13.18,1.131-.132-1.545,15.2-1.3.43,5.032-13.129,1.126Zm-1.543-16.232c.13,1.5,2.295,2.163,5.956,1.849s5.684-1.34,5.555-2.835-2.293-2.163-5.955-1.849S1008.086,186.322,1008.214,187.816Z" fill="#fff"/>
      <path id="패스_7" data-name="패스 7" d="M1052.636,199.492a55.979,55.979,0,0,1-6.424-.759l-1.872,7.855-1.993-.475,1.841-7.733c-2.186-.418-4.26-.886-6.059-1.315l.133-1.741a102.933,102.933,0,0,0,14.555,2.645Zm-11.24-10.1c.637-2.675,3.381-3.949,6.64-3.173,3.235.77,5.11,3.144,4.474,5.819-.633,2.651-3.377,3.924-6.611,3.154C1042.642,194.414,1040.765,192.04,1041.4,189.39Zm1.921.457c-.406,1.7.83,3.2,2.97,3.714,2.116.5,3.9-.28,4.3-1.983s-.831-3.2-2.946-3.707C1045.5,187.361,1043.723,188.145,1043.317,189.847Zm15.7-2.067-5.195,21.813-1.994-.476,5.195-21.812Z" fill="#fff"/>
      <path id="패스_8" data-name="패스 8" d="M1063.951,211.455l11.475,5.9-.766,1.49-13.3-6.835,2.936-5.715,1.824.937Zm3.913-5.045c-2.823-1.452-4-3.914-2.849-6.16,1.142-2.224,3.831-2.7,6.655-1.245s4.027,3.924,2.885,6.148C1073.4,207.4,1070.688,207.861,1067.864,206.41Zm10.271-5.489-11.764-6.045.754-1.468,4.959,2.549,1.258-2.447,1.823.937-1.258,2.447,4.982,2.559Zm-9.538,4.065c1.8.926,3.5.677,4.223-.724.708-1.379-.08-2.908-1.882-3.834s-3.481-.665-4.19.714C1066.029,202.543,1066.8,204.062,1068.6,204.986Zm14.75,1.986-.789,1.535L1079.623,207l-3.521,6.849-1.824-.938,7.693-14.966,1.823.938-3.384,6.582Z" fill="#fff"/>
      <path id="패스_9" data-name="패스 9" d="M1099.34,238.439l-1.2,1.17L1087.669,228.9l4.775-4.668,1.451,1.485-3.577,3.5Zm-.034-9.551a9.208,9.208,0,0,1-.411-7.433,9.093,9.093,0,0,1-7.69-.281l.428-1.853a7.683,7.683,0,0,0,8.924-.96l.5-.489-3.481-3.559,1.182-1.154,3.478,3.559,2.056-2.01,1.435,1.466-2.057,2.011,3.462,3.541-1.181,1.154-3.461-3.541-.5.489c-2.129,2.08-2.4,5.526-.823,8.639Zm7.695-1.717,4.918-4.808,1.45,1.485-11.964,11.7-1.45-1.484,5.83-5.7-3.164-3.236,1.216-1.19Z" fill="#fff"/>
      <path id="패스_10" data-name="패스 10" d="M1104.849,246.439l6.586,11.091-1.439.855-7.634-12.853,6.1-3.625,1.047,1.762Zm6.951-3.227a5.534,5.534,0,1,1,7.737,2.209A5.5,5.5,0,0,1,1111.8,243.212Zm1.525-.906a3.751,3.751,0,1,0,1.259-5.225A3.678,3.678,0,0,0,1113.325,242.306Zm10.827,10.346-1.462.869-1.685-2.837-6.857,4.071-1.046-1.762,14.185-8.425,1.047,1.762-5.867,3.485Z" fill="#fff"/>
      <path id="패스_11" data-name="패스 11" d="M1138.331,273.574l-21.5,6.531-.595-1.961,21.5-6.532Zm-20.406-12.74a101.133,101.133,0,0,0,4.983,13.742l-1.407.611a82.2,82.2,0,0,1-5.153-13.613Zm12.328,9.969c-2.989.908-5.773-.858-6.79-4.206-1.01-3.325.312-6.365,3.3-7.273,3.013-.915,5.78.883,6.79,4.207C1134.572,266.879,1133.266,269.888,1130.253,270.8Zm-2.907-9.566c-1.985.6-2.877,2.651-2.209,4.851.676,2.225,2.55,3.4,4.534,2.8,2.009-.61,2.885-2.626,2.21-4.851C1131.212,261.839,1129.355,260.627,1127.346,261.237Z" fill="#fff"/>
      <path id="패스_12" data-name="패스 12" d="M1121.85,310.143c-2.274-.062-3.4-2.9-3.261-7.766s1.409-7.638,3.683-7.575c2.224.061,3.371,2.893,3.237,7.765S1124.073,310.2,1121.85,310.143Zm.056-2.1c1.25.034,1.98-1.946,2.078-5.519s-.52-5.589-1.77-5.625c-1.275-.035-2,1.946-2.1,5.518S1120.632,308.009,1121.906,308.044Zm6.447,4.753-1.625-.045.558-20.262,1.625.045Zm8.2-9.926c-.127,4.623-1.324,7.215-3.448,7.157s-3.175-2.713-3.047-7.335,1.323-7.19,3.446-7.131S1136.68,298.25,1136.552,302.871Zm-1.449-.039c.089-3.248-.485-5.089-1.659-5.122-1.15-.031-1.825,1.775-1.914,5.023s.486,5.09,1.634,5.121C1134.339,307.887,1135.013,306.08,1135.1,302.832Zm2.1,9.034.5-18.039,1.6.044-.223,8.07,2.249.062-.057,2.049-2.249-.062-.217,7.92Z" fill="#fff"/>
    </g>
  </g>
</svg>
