<svg xmlns="http://www.w3.org/2000/svg" width="247.985" height="283.744" viewBox="0 0 247.985 283.744">
  <g id="circle_txt" transform="translate(-956.195 -101.271)">
    <g id="그룹_1" data-name="그룹 1">
      <path id="패스_1" data-name="패스 1" d="M1026.3,113.491c1.422,5.561,6.48,10.229,11.511,11.111l-1.089,2.663c-3.893-.813-7.728-3.661-10.3-7.629-.22,4.933-2.165,9.478-5.258,12.218l-2.276-1.837c3.929-3.282,6.135-10.059,4.661-15.825l-1.4-5.459,2.747-.7Zm12.035-11.712,7.794,30.487-2.78.711-7.794-30.487Z" fill="#fff"/>
      <path id="패스_2" data-name="패스 2" d="M1074.186,118.008l-14.623-1.118,1.115-14.555,14.623,1.119Zm9.548,11.473-.176,2.3-21.079-1.613.755-9.877,2.862.219-.58,7.574Zm-11.4-23.936-9.039-.692-.762,9.946,9.039.692Zm10.877,18.419-2.862-.219,1.72-22.474,2.863.218Z" fill="#fff"/>
      <path id="패스_3" data-name="패스 3" d="M1096.9,126.489a141.4,141.4,0,0,0,19.207,7.069l-.617,2.058a115.425,115.425,0,0,1-19.221-6.769Zm21.8-4.2c-1.727,4.019-6.13,5.4-10.632,3.47-4.468-1.919-6.529-6.08-4.8-10.1,1.74-4.052,6.162-5.39,10.63-3.47C1118.4,114.128,1120.441,118.241,1118.7,122.293Zm-12.861-5.524c-1.148,2.669.238,5.472,3.2,6.744,2.989,1.283,5.944.343,7.092-2.325,1.16-2.7-.207-5.459-3.2-6.744C1109.975,113.175,1107,114.068,1105.841,116.769Zm23.117-.622-12.415,28.909-2.637-1.133,12.416-28.906Z" fill="#fff"/>
      <path id="패스_4" data-name="패스 4" d="M1159.658,177.13c-2.679,2.252-6.724.483-10.933-4.528s-5.252-9.3-2.573-11.553c2.707-2.273,6.752-.5,10.961,4.507S1162.365,174.856,1159.658,177.13Zm-1.845-2.2c1.609-1.351.673-4.315-2.388-7.959-3.084-3.672-5.841-5.1-7.449-3.754-1.582,1.328-.647,4.291,2.437,7.963C1153.475,174.828,1156.231,176.261,1157.813,174.933Zm-4.53-17.039c-2.543-3.029-2.713-6.5-.194-8.614,2.467-2.07,5.88-1.326,8.423,1.7s2.665,6.493.2,8.563C1159.191,161.662,1155.827,160.922,1153.283,157.894Zm1.635-1.373c1.577,1.876,3.648,2.33,5.148,1.068,1.476-1.237,1.386-3.358-.189-5.233-1.6-1.9-3.648-2.33-5.123-1.091C1153.254,152.524,1153.32,154.618,1154.918,156.521Zm12.963-.512-10.264-12.222,1.741-1.463,4.233,5.038,2.68-2.25,1.823,2.17-2.681,2.252,4.188,4.985Zm-7.185,11.2-1.757-2.091,13.885-11.66,1.755,2.09-6.084,5.111,2.566,3.055,6.541-5.492,1.778,2.117-15.225,12.785-1.778-2.117,6.889-5.785-2.567-3.055Z" fill="#fff"/>
      <path id="패스_5" data-name="패스 5" d="M1170.979,188.38l7.869,20.263-9.136,3.547-1.039-2.675,6.981-2.712-6.829-17.585Zm14.161,21.574-2.187.849-10.289-26.494,2.186-.849,4.637,11.941,3.492-1.355-3.269-8.418,10.93-4.245,1.026,2.642-3.328,1.293,5.525,14.226,3.327-1.293,1.027,2.643-10.93,4.246-3.269-8.418-3.492,1.355Zm-2.284-22.507,5.526,14.226,3.393-1.319-5.525-14.224Z" fill="#fff"/>
      <path id="패스_6" data-name="패스 6" d="M1175.545,229.623l.859,19.37-2.238.1-.982-22.168,7.516-.334.817,18.392,2.8-.125-.82-18.495,2.168-.1.946,21.329-7.064.311-.815-18.426Zm16.223,21.386-2.308.1-1.259-28.39,2.308-.1Zm6.434-25.543c3.532-.156,5.638,3.884,5.944,10.771s-1.435,11.1-4.966,11.256-5.6-3.887-5.909-10.773S1194.671,225.622,1198.2,225.466Zm.131,2.937c-2.1.092-3.157,3.082-2.929,8.222s1.546,8.024,3.645,7.931,3.156-3.082,2.929-8.223S1200.43,228.31,1198.333,228.4Z" fill="#fff"/>
      <path id="패스_7" data-name="패스 7" d="M1187.393,311.556,1158.8,298.6l1.183-2.615,28.591,12.954ZM1173,299.656a79.088,79.088,0,0,1,2.755-8.625l-10.3-4.665,1.185-2.613,10.134,4.593c1.159-2.9,2.355-5.618,3.424-7.977l2.358.646a144.053,144.053,0,0,0-7.516,19.3Zm16.88-12.751c3.506,1.588,4.524,5.7,2.589,9.971-1.92,4.238-5.682,6.184-9.189,4.6-3.474-1.575-4.493-5.686-2.572-9.926C1182.643,287.276,1186.406,285.331,1189.88,286.9Zm-1.142,2.518c-2.23-1.011-4.624.286-5.894,3.092-1.257,2.772-.655,5.427,1.577,6.438s4.624-.287,5.882-3.059C1191.573,293.089,1190.97,290.435,1188.738,289.423Z" fill="#fff"/>
      <path id="패스_8" data-name="패스 8" d="M1150.225,315.532,1137.9,328.739l-1.714-1.6,14.283-15.306,6.578,6.139-1.959,2.1Zm-1.368,27.839-1.765-1.648,3.153-3.378-7.884-7.358,1.959-2.1,17.225,16.075-1.958,2.1-7.576-7.071Zm6.669-20.64c3.034-3.25,6.8-3.9,9.386-1.488,2.56,2.388,2.17,6.191-.863,9.442s-6.824,3.925-9.383,1.538C1152.08,329.81,1152.493,325.981,1155.526,322.731Zm1.638,1.529c-1.934,2.073-2.248,4.462-.636,5.966,1.587,1.481,3.949,1,5.883-1.071s2.225-4.435.639-5.916C1161.438,321.734,1159.1,322.187,1157.164,324.26Zm1.836,14.4,12.635-13.539,1.688,1.576L1168,332.4l2.816,2.629-1.959,2.1-2.815-2.627-5.351,5.732Z" fill="#fff"/>
      <path id="패스_9" data-name="패스 9" d="M1089.979,353.772l-.805-2.2,19.685-7.2,3.209,8.775-2.727,1-2.4-6.574Zm9.968,16.252,3.3,9.039-2.727,1-8.043-21.988,2.729-1,3.919,10.715,5.948-2.176.817,2.235Zm2.234-10.8a12.885,12.885,0,0,1,9.717,3.748,12.726,12.726,0,0,1,4.782-9.648l2.117,1.611c-3.831,3.078-5.41,7.828-3.908,11.936l.338.921,6.54-2.393.794,2.17-6.541,2.392,1.382,3.78-2.695.985-1.383-3.78-6.508,2.38-.793-2.169,6.508-2.38-.336-.921c-1.43-3.91-5.672-6.234-10.547-6.015Z" fill="#fff"/>
      <path id="패스_10" data-name="패스 10" d="M1050.943,375.577l-.058-2.379,4.618-.114-.276-11.161,2.869-.071.57,23.091-2.867.072-.237-9.551Zm20.809-19.314-18.054.447-.058-2.346,20.923-.515.246,9.935-2.87.071Zm-.821,10.7c4.688-.117,8.265,2.98,8.378,7.529s-3.307,7.819-8,7.935-8.266-2.982-8.378-7.53S1066.242,367.077,1070.931,366.962Zm.061,2.483a5.251,5.251,0,1,0,5.518,5.115A5.149,5.149,0,0,0,1070.992,369.445Z" fill="#fff"/>
      <path id="패스_11" data-name="패스 11" d="M1009.111,374.908l9.427-30.018,2.738.86-9.426,30.018Zm9.584-7.151c1.311-4.175,5.551-6,10.226-4.529,4.642,1.457,7.112,5.386,5.8,9.561-1.323,4.207-5.586,5.986-10.227,4.529C1019.821,375.849,1017.373,371.964,1018.7,367.757Zm21.263-6.383a141.295,141.295,0,0,0-19.825-5.088l.406-2.111a115.556,115.556,0,0,1,19.809,4.79Zm-7.907,10.576c.871-2.771-.793-5.422-3.863-6.386-3.106-.975-5.952.259-6.822,3.031-.88,2.8.759,5.41,3.864,6.385C1028.3,375.944,1031.17,374.755,1032.051,371.95Z" fill="#fff"/>
      <path id="패스_12" data-name="패스 12" d="M957.756,332.3l18.129,17.6-1.561,1.608-8.11-7.875-2.194,2.26-2.059-2,2.193-2.26L956.2,333.9Zm9.892,7.847c-4.646-4.51-6.185-8.2-4.113-10.334s5.805-.7,10.451,3.805,6.16,8.177,4.088,10.311S972.293,344.657,967.648,340.147Zm-2.467-17.859,1.585-1.631,20.365,19.772-1.585,1.633Zm3.88,16.4c3.265,3.17,5.707,4.323,6.853,3.142,1.121-1.155-.1-3.562-3.366-6.731s-5.706-4.322-6.828-3.166C964.574,333.114,965.8,335.521,969.061,338.69Zm5.017-20.591c2.219-2.286,6.2-.76,11.1,3.994s6.539,8.69,4.32,10.976c-2.17,2.234-6.177.734-11.072-4.02S971.909,320.333,974.078,318.1Zm2.11,2.048c-1.219,1.254.131,3.883,3.722,7.37s6.258,4.759,7.478,3.5c1.243-1.282-.109-3.91-3.7-7.4S977.432,318.866,976.188,320.147Z" fill="#fff"/>
    </g>
  </g>
</svg>
