<?xml version="1.0" encoding="utf-8"?>
<!-- Generator: Adobe Illustrator 24.0.1, SVG Export Plug-In . SVG Version: 6.00 Build 0)  -->
<svg version="1.0" id="Layer_1" xmlns="http://www.w3.org/2000/svg" xmlns:xlink="http://www.w3.org/1999/xlink" x="0px" y="0px"
	 viewBox="0 0 100 100" style="enable-background:new 0 0 100 100;" xml:space="preserve">
<g>
	<path d="M86.53,28.97H13.02c-3.02,0-5.47-2.45-5.47-5.47s2.45-5.47,5.47-5.47h73.51c3.02,0,5.47,2.45,5.47,5.47
		S89.55,28.97,86.53,28.97z"/>
</g>
<g>
	<path d="M86.53,55.56H13.02c-3.02,0-5.47-2.45-5.47-5.47c0-3.02,2.45-5.47,5.47-5.47h73.51c3.02,0,5.47,2.45,5.47,5.47
		C92,53.11,89.55,55.56,86.53,55.56z"/>
</g>
<g>
	<path d="M86.53,82.15H13.02c-3.02,0-5.47-2.45-5.47-5.47s2.45-5.47,5.47-5.47h73.51c3.02,0,5.47,2.45,5.47,5.47
		S89.55,82.15,86.53,82.15z"/>
</g>
</svg>
