<svg xmlns="http://www.w3.org/2000/svg" width="30" height="29.983" viewBox="0 0 30 29.983">
  <g id="insta" transform="translate(-6.3 -9)">
    <path id="SVGID_1_" d="M15.085,9.1a10.786,10.786,0,0,0-3.644.7A7.558,7.558,0,0,0,8.8,11.537a7.2,7.2,0,0,0-1.72,2.656,11.222,11.222,0,0,0-.7,3.644c-.068,1.6-.085,2.111-.085,6.18.017,4.069.034,4.58.1,6.18a10.588,10.588,0,0,0,.7,3.627A7.468,7.468,0,0,0,8.837,36.48a7.2,7.2,0,0,0,2.656,1.72,11.222,11.222,0,0,0,3.644.7c1.6.068,2.111.085,6.18.085,4.069-.017,4.58-.017,6.18-.1a10.786,10.786,0,0,0,3.644-.7A7.468,7.468,0,0,0,33.8,36.446a7.2,7.2,0,0,0,1.72-2.656,11.222,11.222,0,0,0,.7-3.644c.068-1.6.085-2.111.085-6.18-.017-4.069-.017-4.58-.1-6.18a10.786,10.786,0,0,0-.7-3.644,7.468,7.468,0,0,0-1.737-2.656,7.2,7.2,0,0,0-2.656-1.72,11.222,11.222,0,0,0-3.644-.7C25.846,9.017,25.335,9,21.266,9c-4.069.017-4.58.034-6.18.1m.17,27.089a8.314,8.314,0,0,1-2.775-.511,5.007,5.007,0,0,1-2.843-2.843,8.3,8.3,0,0,1-.528-2.775C9.041,28.478,9.024,28,9.007,24c0-4,0-4.478.068-6.061a8.314,8.314,0,0,1,.511-2.775,5.007,5.007,0,0,1,2.843-2.843,8.766,8.766,0,0,1,2.775-.528c1.583-.068,2.06-.085,6.044-.1,4,0,4.478,0,6.061.068a8.314,8.314,0,0,1,2.775.511,4.507,4.507,0,0,1,1.72,1.124,4.64,4.64,0,0,1,1.124,1.72,8.766,8.766,0,0,1,.528,2.775c.068,1.583.085,2.06.1,6.044.017,4,0,4.478-.068,6.061a8.548,8.548,0,0,1-.511,2.792,5.007,5.007,0,0,1-2.843,2.843,8.766,8.766,0,0,1-2.775.528c-1.583.068-2.06.085-6.061.1-3.984.017-4.461,0-6.044-.068M27.48,15.981a1.8,1.8,0,1,0,1.788-1.8,1.8,1.8,0,0,0-1.788,1.8M13.6,24a7.7,7.7,0,1,0,7.679-7.713A7.688,7.688,0,0,0,13.6,24m2.69,0A5,5,0,1,1,21.3,28.989,5.01,5.01,0,0,1,16.294,24" fill="rgba(255,255,255,0.8)"/>
  </g>
</svg>
