<svg xmlns="http://www.w3.org/2000/svg" xmlns:xlink="http://www.w3.org/1999/xlink" width="170.674" height="38" viewBox="0 0 170.674 38">
  <defs>
    <radialGradient id="radial-gradient" cx="0.75" cy="0.3" r="1.033" gradientTransform="translate(0.006) scale(0.987 1)" gradientUnits="objectBoundingBox">
      <stop offset="0" stop-color="#008ed2"/>
      <stop offset="0.66" stop-color="#00398f"/>
      <stop offset="1" stop-color="#0072c0"/>
    </radialGradient>
    <radialGradient id="radial-gradient-2" cx="0.77" cy="0.58" r="0.951" gradientTransform="translate(-0.01) scale(1.021 1)" gradientUnits="objectBoundingBox">
      <stop offset="0" stop-color="#b9e6fb"/>
      <stop offset="0.63" stop-color="#00b8eb"/>
      <stop offset="1" stop-color="#88d5f8"/>
    </radialGradient>
  </defs>
  <g id="logo_w" transform="translate(-208.439 -319.141)">
    <g id="그룹_1" data-name="그룹 1" transform="translate(208.439 319.141)">
      <path id="패스_1" data-name="패스 1" d="M240.847,324.8a19,19,0,1,1-22.326-3.318l2.627-.194S231.172,316.088,240.847,324.8Z" transform="translate(-208.439 -319.262)" fill-rule="evenodd" fill="url(#radial-gradient)"/>
      <path id="패스_2" data-name="패스 2" d="M214.745,341.617A13.356,13.356,0,0,0,226.4,343.7a12.887,12.887,0,0,0,7.9-6.879c1.511-3.511.7-8.046-3.345-9.346-2.481-.8-5.5.347-7.446,1.9-1.609,1.282-3.321,3.213-5.662,2.374-1.829-.657-2.5-2.952-.935-5.694,1.554-2.72,4.88-5.358,10.176-5.726a19.579,19.579,0,0,1,13.8,4.352,19.011,19.011,0,0,0-22.329-3.318,15.265,15.265,0,0,0-6.49,6.828c-2.074,4.437-1.619,10.123,2.677,13.427Zm-3.841-12.77c-2.567,6.027-.68,13.441,5.264,16.806,5.422,3.072,12.95,2.695,17.667-1.879,1.52-1.473,2.68-3.7,4.546-4.656a2.909,2.909,0,0,1,2.871.013c1.493,1,1.541,2.827,1,4.537a12.128,12.128,0,0,1-2.979,4.636,17.556,17.556,0,0,1-8.093,4.815,19.076,19.076,0,0,1-16.148-2.908,16.286,16.286,0,0,1-5.368-18.683A18.882,18.882,0,0,1,210.9,328.847Z" transform="translate(-208.478 -319.141)" fill-rule="evenodd" fill="url(#radial-gradient-2)"/>
    </g>
    <path id="패스_3" data-name="패스 3" d="M381.627,328.591v-1.334l-9.414.006q0,3.527.006,7.053a1.62,1.62,0,0,0,.536,1.286,2.167,2.167,0,0,0,1.475.467l8.147-.006v-1.354l-7.3.006,0-6.12,6.552,0Zm-79.66,10.669a1.2,1.2,0,0,0-1.232-1.153l-3.989,0,0-3.184,7.557-.006v-1.334l-3.233,0a3.689,3.689,0,0,0,.436-.687,5.155,5.155,0,0,0,.263-.764,7.6,7.6,0,0,0,.2-.792,4.6,4.6,0,0,0,.065-.771q0-1.311,0-2.622a1.2,1.2,0,0,0-1.233-1.152l-12.115.01v1.334l10.463-.008,0,2.516a12.061,12.061,0,0,1-.1,1.525,5.708,5.708,0,0,1-.36,1.411l-12.21.009v1.334l7.4,0,0,3.184-5.286,0v1.334l10.463-.008,0,4.842,2.905,0q0-2.511,0-5.022Zm74.156-.848h-1.631q0,2,0,4a1.619,1.619,0,0,0,.57,1.325,2.263,2.263,0,0,0,1.485.466l11.162-.007v-1.334l-10.354.007,0-3.308a1.2,1.2,0,0,0-1.231-1.152Zm9.928-11.77a1.2,1.2,0,0,1,1.233,1.152q0,1.322,0,2.641l3.212,0v1.334l-3.212,0,.006,7.759-2.861,0q0-6.444-.01-12.887l1.63,0Zm-23.93.018-1.531,0q.007,8.778.014,17.558l2.687,0-.009-11.362,1.966,0,.009,11.362,2.687,0q0-8.237-.012-16.474a1.125,1.125,0,0,0-1.156-1.083l-1.532,0q0,2.43,0,4.86l-1.966,0q0-1.888,0-3.778a1.125,1.125,0,0,0-1.156-1.083Zm-18.7.014-1.643,0q0,4.747.007,9.493l2.884,0,0-2.65,3.21,0v-1.335l-3.21,0,0-1.541,3.21,0V329.3l-3.21,0,0-1.47a1.207,1.207,0,0,0-1.241-1.161Zm-23.7.018-1.53,0q.006,8.778.013,17.557l2.688,0-.008-10.352,1.637,0,.008,10.352,2.686,0q-.006-8.237-.013-16.474a1.123,1.123,0,0,0-1.156-1.082H322.51q0,2.935,0,5.871h-1.637q0-2.394,0-4.788a1.125,1.125,0,0,0-1.157-1.083Zm-49.342,12.142-1.63,0q0,1.831,0,3.661a1.634,1.634,0,0,0,.558,1.324,2.217,2.217,0,0,0,1.475.467l10.921-.009v-1.334l-10.091.008,0-2.964a1.2,1.2,0,0,0-1.231-1.153Zm9.689-12.111a1.2,1.2,0,0,1,1.232,1.152q0,1.481,0,2.964l3.21,0v1.353l-3.21,0,.006,7.435-2.862,0q0-6.454-.009-12.907Zm70.611,1.128,0,1.6,3.145,0a14.055,14.055,0,0,1-.554,4.213,13.258,13.258,0,0,1-.9,2.308,9.9,9.9,0,0,1-1.146,1.783,11.152,11.152,0,0,1-1.233,1.288l1.662,1.619a5.466,5.466,0,0,0,1.113-.973,12.647,12.647,0,0,0,1.025-1.317,11.446,11.446,0,0,0,.84-1.449,12.836,12.836,0,0,0,.579-1.373,13.853,13.853,0,0,0,1.661,2.057q.96.992,2.23,2.134l1.025-1.354c-.481-.431-.919-.836-1.313-1.21s-.755-.761-1.092-1.152a11.787,11.787,0,0,1-.94-1.239,13.715,13.715,0,0,1-.852-1.524,11.9,11.9,0,0,0,.3-1.735q.108-.99.174-2.04l2.905,0,0-1.64-8.628.006Zm-11.23,8.912a6.126,6.126,0,0,0-1.986.306,5.231,5.231,0,0,0-1.617.9,4.268,4.268,0,0,0-1.135,1.327,3.436,3.436,0,0,0,0,3.106,4.252,4.252,0,0,0,1.137,1.3,5.077,5.077,0,0,0,1.617.9,6.8,6.8,0,0,0,3.965,0,5,5,0,0,0,1.626-.906,4.4,4.4,0,0,0,1.123-1.307,3.342,3.342,0,0,0,0-3.107,4.392,4.392,0,0,0-1.125-1.323,5.082,5.082,0,0,0-1.628-.9,6.189,6.189,0,0,0-1.978-.3Zm0,1.334a1.749,1.749,0,0,1,.94.256,2.573,2.573,0,0,1,.721.657,3.254,3.254,0,0,1,.449.887,2.972,2.972,0,0,1,.164.943,2.943,2.943,0,0,1-.631,1.83,2.3,2.3,0,0,1-.711.621,1.869,1.869,0,0,1-.928.239,1.917,1.917,0,0,1-.94-.228,2.313,2.313,0,0,1-.72-.609,2.934,2.934,0,0,1-.449-.868,3.07,3.07,0,0,1-.165-.982,3.2,3.2,0,0,1,.153-.963,2.989,2.989,0,0,1,.435-.886,2.43,2.43,0,0,1,.721-.649,1.835,1.835,0,0,1,.96-.248Zm-10.641-6.665a3.8,3.8,0,0,1,.381-1.7,4.2,4.2,0,0,1,1.168-1.412,5.687,5.687,0,0,1,1.7-.974,6.575,6.575,0,0,1,4.073,0,5.573,5.573,0,0,1,1.715.972,4.245,4.245,0,0,1,1.148,1.409,3.954,3.954,0,0,1,0,3.393,4.265,4.265,0,0,1-1.146,1.412,5.553,5.553,0,0,1-1.714.973,6.576,6.576,0,0,1-4.074,0,5.716,5.716,0,0,1-1.7-.971,4.207,4.207,0,0,1-1.169-1.41,3.79,3.79,0,0,1-.384-1.7Zm7.71-.024a3.557,3.557,0,0,0-.176-1.1,3.7,3.7,0,0,0-.481-.981,2.387,2.387,0,0,0-.765-.705,1.968,1.968,0,0,0-1-.266,2,2,0,0,0-1.038.267,2.481,2.481,0,0,0-.752.707,3.03,3.03,0,0,0-.458.972,4.107,4.107,0,0,0-.152,1.105,4.187,4.187,0,0,0,.154,1.144,3.066,3.066,0,0,0,.459.972,2.469,2.469,0,0,0,.754.7,1.99,1.99,0,0,0,1.038.266,1.956,1.956,0,0,0,1-.267,2.377,2.377,0,0,0,.764-.706,3.69,3.69,0,0,0,.479-.981,3.6,3.6,0,0,0,.174-1.135ZM310.4,328.319l3.975,0v-1.239l-3.975,0v1.239Zm1.989,3.525a1.425,1.425,0,0,1,.821.247,2.211,2.211,0,0,1,.6.629,3.3,3.3,0,0,1,.382.829,3.083,3.083,0,0,1,.143.886,3.37,3.37,0,0,1-.13.905,3.041,3.041,0,0,1-.392.85,2.119,2.119,0,0,1-.6.619,1.457,1.457,0,0,1-.82.239,1.529,1.529,0,0,1-.862-.238,2.184,2.184,0,0,1-.623-.619,2.813,2.813,0,0,1-.36-.839,3.588,3.588,0,0,1-.121-.915,3.317,3.317,0,0,1,.13-.906,2.717,2.717,0,0,1,.393-.829,2.352,2.352,0,0,1,.623-.62,1.451,1.451,0,0,1,.817-.239Zm-4.544-2.227v1.3l2.839,0a6.56,6.56,0,0,0-2.117,1.621,3,3,0,0,0-.7,1.907,3.427,3.427,0,0,0,.328,1.487,3.985,3.985,0,0,0,1.005,1.257,4.46,4.46,0,0,0,1.432.856,5.16,5.16,0,0,0,1.758.286,4.944,4.944,0,0,0,1.748-.289,4.3,4.3,0,0,0,1.4-.858,4.791,4.791,0,0,0,1.015-1.249,3.071,3.071,0,0,0,.359-1.5,2.966,2.966,0,0,0-.712-1.906,6.726,6.726,0,0,0-2.11-1.619l2.818,0v-1.3l-9.064.006Zm-39.373-1.838,4.958,0,0-1.239-4.957,0v1.239Zm-3.014.9,0,1.316,2.817,0a5.966,5.966,0,0,0-1.593,1.583,3.083,3.083,0,0,0-.523,1.678,3.382,3.382,0,0,0,.339,1.5,3.709,3.709,0,0,0,1.06,1.267,5.366,5.366,0,0,0,1.563.867,5.486,5.486,0,0,0,1.824.294,5.631,5.631,0,0,0,1.823-.287,5.007,5.007,0,0,0,1.561-.878,3.925,3.925,0,0,0,1.048-1.269,3.288,3.288,0,0,0,.347-1.5,3.016,3.016,0,0,0-.547-1.7,6.141,6.141,0,0,0-1.6-1.562l2.861,0,0-1.316-10.986.008Zm5.484,1.884a1.552,1.552,0,0,1,.863.247,2.545,2.545,0,0,1,.667.628,3.261,3.261,0,0,1,.416.858,3.106,3.106,0,0,1,.154.952,3.331,3.331,0,0,1-.142.953,2.97,2.97,0,0,1-.425.877,2.223,2.223,0,0,1-.655.63,1.682,1.682,0,0,1-1.758,0,2.44,2.44,0,0,1-.667-.648,3.236,3.236,0,0,1-.407-2.745,3.051,3.051,0,0,1,.4-.857,2.455,2.455,0,0,1,.667-.649A1.588,1.588,0,0,1,270.944,330.561Z" transform="translate(-11.385 -1.477)" fill="#fff"/>
    <g id="그룹_2" data-name="그룹 2" transform="translate(255.92 346.555)">
      <path id="패스_4" data-name="패스 4" d="M267.765,353.5h1.029v2.162l1.852-2.162h1.265l-2.111,2.371,2.2,2.659h-1.345l-1.846-2.335h-.014v2.335h-1.029Z" transform="translate(-267.765 -353.415)" fill="#fff"/>
      <path id="패스_5" data-name="패스 5" d="M277.329,353.394a2.6,2.6,0,1,1-2.514,2.586A2.374,2.374,0,0,1,277.329,353.394Zm0,4.409c1.052,0,1.441-.915,1.441-1.823,0-.886-.419-1.794-1.441-1.794s-1.441.908-1.441,1.794C275.888,356.888,276.278,357.8,277.329,357.8Z" transform="translate(-269.173 -353.394)" fill="#fff"/>
      <path id="패스_6" data-name="패스 6" d="M283.4,353.5h1.11c1.1,0,2.419-.036,2.419,1.362a1.158,1.158,0,0,1-1.058,1.167v.015c.279.021.441.3.543.518l.824,1.967h-1.147l-.617-1.571c-.147-.374-.28-.518-.714-.518h-.331v2.089H283.4Zm1.029,2.147h.339c.507,0,1.088-.072,1.088-.7,0-.605-.573-.656-1.088-.656h-.339Z" transform="translate(-270.886 -353.415)" fill="#fff"/>
      <path id="패스_7" data-name="패스 7" d="M290.357,353.5h3.028v.792h-2v1.24h1.83v.792h-1.83v1.413H293.4v.792h-3.043Z" transform="translate(-272.276 -353.415)" fill="#fff"/>
      <path id="패스_8" data-name="패스 8" d="M298.038,353.5H299.2l2.014,5.029h-1.14l-.44-1.152h-2.081l-.449,1.152h-1.066Zm.566,1.009h-.014l-.743,2.075h1.5Z" transform="translate(-273.41 -353.415)" fill="#fff"/>
      <path id="패스_9" data-name="패스 9" d="M310.561,353.394a2.6,2.6,0,1,1-2.515,2.586A2.373,2.373,0,0,1,310.561,353.394Zm0,4.409c1.051,0,1.441-.915,1.441-1.823,0-.886-.419-1.794-1.441-1.794s-1.441.908-1.441,1.794C309.119,356.888,309.509,357.8,310.561,357.8Z" transform="translate(-275.808 -353.394)" fill="#fff"/>
      <path id="패스_10" data-name="패스 10" d="M320.411,358.437a5.294,5.294,0,0,1-1.168.159c-1.662,0-2.816-.815-2.816-2.515a2.521,2.521,0,0,1,2.816-2.687,3.472,3.472,0,0,1,1.161.208l-.074.851a2.147,2.147,0,0,0-1.111-.267,1.694,1.694,0,0,0-1.72,1.822,1.673,1.673,0,0,0,1.743,1.794,2.91,2.91,0,0,0,1.124-.209Z" transform="translate(-277.481 -353.394)" fill="#fff"/>
      <path id="패스_11" data-name="패스 11" d="M323.589,353.5h3.028v.792h-2v1.24h1.83v.792h-1.83v1.413h2.014v.792h-3.043Z" transform="translate(-278.911 -353.415)" fill="#fff"/>
      <path id="패스_12" data-name="패스 12" d="M331.269,353.5h1.161l2.015,5.029h-1.14l-.441-1.152h-2.08l-.449,1.152H329.27Zm.566,1.009h-.014l-.743,2.075h1.5Z" transform="translate(-280.045 -353.415)" fill="#fff"/>
      <path id="패스_13" data-name="패스 13" d="M337.735,353.5H339l1.956,3.762h.014V353.5h.985v5.029H340.7l-1.963-3.761h-.014v3.761h-.985Z" transform="translate(-281.735 -353.415)" fill="#fff"/>
      <path id="패스_14" data-name="패스 14" d="M349.458,353.5h2.852v.792h-1.822v1.24h1.735v.792h-1.735v2.2h-1.03Z" transform="translate(-284.076 -353.415)" fill="#fff"/>
      <path id="패스_15" data-name="패스 15" d="M357.489,353.394a2.6,2.6,0,1,1-2.514,2.586A2.374,2.374,0,0,1,357.489,353.394Zm0,4.409c1.052,0,1.441-.915,1.441-1.823,0-.886-.419-1.794-1.441-1.794s-1.441.908-1.441,1.794C356.047,356.888,356.438,357.8,357.489,357.8Z" transform="translate(-285.178 -353.394)" fill="#fff"/>
      <path id="패스_16" data-name="패스 16" d="M363.622,353.5h1.03v2.9c0,.858.279,1.42,1.066,1.42s1.066-.562,1.066-1.42v-2.9h1.028v3.214c0,1.347-.78,1.9-2.094,1.9s-2.1-.555-2.1-1.9Z" transform="translate(-286.904 -353.415)" fill="#fff"/>
      <path id="패스_17" data-name="패스 17" d="M371.471,353.5h1.265l1.955,3.762h.014V353.5h.985v5.029h-1.257l-1.964-3.761h-.014v3.761h-.985Z" transform="translate(-288.471 -353.415)" fill="#fff"/>
      <path id="패스_18" data-name="패스 18" d="M379.4,353.5h1.4c1.573,0,2.962.519,2.962,2.515s-1.389,2.514-2.962,2.514h-1.4Zm1.028,4.237h.574a1.723,1.723,0,0,0,0-3.445h-.574Z" transform="translate(-290.055 -353.415)" fill="#fff"/>
      <path id="패스_19" data-name="패스 19" d="M388.607,353.5h1.161l2.015,5.029h-1.14l-.441-1.152h-2.08l-.449,1.152h-1.066Zm.566,1.009h-.014l-.743,2.075h1.5Z" transform="translate(-291.494 -353.415)" fill="#fff"/>
      <path id="패스_20" data-name="패스 20" d="M395.2,354.293h-1.471V353.5h3.97v.792H396.23v4.237H395.2Z" transform="translate(-292.916 -353.415)" fill="#fff"/>
      <path id="패스_21" data-name="패스 21" d="M400.635,353.5h1.031v5.029h-1.031Z" transform="translate(-294.294 -353.415)" fill="#fff"/>
      <path id="패스_22" data-name="패스 22" d="M406.739,353.394a2.6,2.6,0,1,1-2.514,2.586A2.374,2.374,0,0,1,406.739,353.394Zm0,4.409c1.052,0,1.441-.915,1.441-1.823,0-.886-.419-1.794-1.441-1.794s-1.441.908-1.441,1.794C405.3,356.888,405.688,357.8,406.739,357.8Z" transform="translate(-295.011 -353.394)" fill="#fff"/>
      <path id="패스_23" data-name="패스 23" d="M412.854,353.5h1.265l1.956,3.762h.014V353.5h.985v5.029h-1.257l-1.963-3.761h-.014v3.761h-.985Z" transform="translate(-296.734 -353.415)" fill="#fff"/>
    </g>
  </g>
</svg>
