<svg id="sns_blog" xmlns="http://www.w3.org/2000/svg" width="21.856" height="20.272" viewBox="0 0 21.856 20.272">
  <path id="패스_67" data-name="패스 67" d="M650.032,314.51a.753.753,0,1,0,.753.752A.752.752,0,0,0,650.032,314.51Z" transform="translate(-645.263 -307.03)" fill="#fff"/>
  <path id="패스_68" data-name="패스 68" d="M697.861,314a.811.811,0,1,0,.81.811A.81.81,0,0,0,697.861,314Z" transform="translate(-685.658 -306.599)" fill="#fff"/>
  <path id="패스_69" data-name="패스 69" d="M642.192,266.06H626.184a2.924,2.924,0,0,0-2.924,2.924v9.5a2.924,2.924,0,0,0,2.924,2.924h5.654l1.924,4.531s.133.392.452.392h0c.321,0,.452-.392.452-.392l1.924-4.531h5.6a2.924,2.924,0,0,0,2.924-2.924v-9.5A2.924,2.924,0,0,0,642.192,266.06Zm-12.067,8.4a1.81,1.81,0,0,1-1.8,1.786,1.5,1.5,0,0,1-1.087-.46v.313h-1.308V270.7s-.006,0,0,0v0c.082.012,1.308,0,1.308,0v2.063c.307-.525,1.2-.516,1.2-.516A1.914,1.914,0,0,1,630.125,274.457Zm2.3-2.044v3.693h-1.28V272.45c0-.5-.618-.636-.618-.636v-1.289A1.771,1.771,0,0,1,632.429,272.413Zm3.034,3.833a1.981,1.981,0,1,1,2.146-1.975A2.066,2.066,0,0,1,635.463,276.246Zm7.012,0a1.826,1.826,0,0,1-1.888,1.876h-.581v-1.215h.35s.8.074.792-1.161c0,0-.156.5-1.28.5a1.687,1.687,0,0,1-1.593-1.669v-.59a1.82,1.82,0,0,1,1.786-1.74,1.3,1.3,0,0,1,1.115.5v-.4h1.3Z" transform="translate(-623.26 -266.06)" fill="#fff"/>
  <path id="패스_70" data-name="패스 70" d="M730.2,314.12a.792.792,0,1,0,.792.792A.793.793,0,0,0,730.2,314.12Z" transform="translate(-713.022 -306.7)" fill="#fff"/>
</svg>
