<svg id="sns_insta" xmlns="http://www.w3.org/2000/svg" width="16" height="15.99" viewBox="0 0 16 15.99">
  <g id="그룹_22" data-name="그룹 22" transform="translate(0 0)">
    <path id="SVGID_1_" d="M10.985,9.054a5.752,5.752,0,0,0-1.943.372,4.031,4.031,0,0,0-1.407.926,3.837,3.837,0,0,0-.917,1.417,5.985,5.985,0,0,0-.372,1.943c-.036.854-.045,1.126-.045,3.3s.018,2.443.054,3.3a5.647,5.647,0,0,0,.372,1.934,3.983,3.983,0,0,0,.926,1.417,3.837,3.837,0,0,0,1.417.917,5.985,5.985,0,0,0,1.943.372c.854.036,1.126.045,3.3.045s2.443-.009,3.3-.054a5.752,5.752,0,0,0,1.943-.372,3.983,3.983,0,0,0,1.417-.926,3.837,3.837,0,0,0,.917-1.417,5.985,5.985,0,0,0,.372-1.943c.036-.854.045-1.126.045-3.3s-.009-2.443-.054-3.3a5.752,5.752,0,0,0-.372-1.943,3.983,3.983,0,0,0-.926-1.417,3.837,3.837,0,0,0-1.417-.917,5.985,5.985,0,0,0-1.943-.372C16.724,9.009,16.452,9,14.282,9s-2.443.018-3.3.054M11.076,23.5a4.434,4.434,0,0,1-1.48-.272A2.67,2.67,0,0,1,8.08,21.713a4.425,4.425,0,0,1-.281-1.48c-.036-.844-.045-1.1-.054-3.233s0-2.388.036-3.233a4.434,4.434,0,0,1,.272-1.48,2.67,2.67,0,0,1,1.516-1.516,4.675,4.675,0,0,1,1.48-.281c.844-.036,1.1-.045,3.224-.054s2.388,0,3.233.036a4.434,4.434,0,0,1,1.48.272,2.4,2.4,0,0,1,.917.6,2.475,2.475,0,0,1,.6.917,4.675,4.675,0,0,1,.281,1.48c.036.844.045,1.1.054,3.224s0,2.388-.036,3.233a4.559,4.559,0,0,1-.272,1.489A2.67,2.67,0,0,1,19.013,23.2a4.675,4.675,0,0,1-1.48.281c-.844.036-1.1.045-3.233.054s-2.379,0-3.224-.036M17.6,12.723a.958.958,0,1,0,.953-.963.961.961,0,0,0-.953.963M10.2,17a4.1,4.1,0,1,0,4.1-4.113A4.1,4.1,0,0,0,10.2,17m1.435,0A2.665,2.665,0,1,1,14.3,19.66,2.672,2.672,0,0,1,11.63,17" transform="translate(-6.3 -9)" fill="#fff"/>
  </g>
</svg>
