<svg width="175" height="39" viewBox="0 0 175 39" fill="none" xmlns="http://www.w3.org/2000/svg">
<path d="M19.0005 19.5194L17.2856 0.587402C14.1732 1.66776 11.9353 4.62589 11.9353 8.10705C11.9353 8.94734 12.0725 9.75332 12.3125 10.5164C11.0092 9.58183 9.41442 9.03308 7.69099 9.03308C4.99866 9.03308 2.62359 10.3707 1.18311 12.4113L19.0005 19.5194Z" fill="#00AE4D"/>
<path d="M18.5033 21.2772L0 16.9386C0.0428714 20.2311 2.14357 23.2836 5.45325 24.3811C6.25066 24.6469 7.06522 24.7669 7.86262 24.7841C6.56791 25.7272 5.54757 27.0648 4.99881 28.7025C4.14996 31.2577 4.67299 33.9328 6.15634 35.9392L18.5033 21.2772Z" fill="#00AE4D"/>
<path d="M20.0381 22.1603L10.272 38.4686C13.4273 39.429 16.9685 38.3572 19.0263 35.5448C19.5236 34.8674 19.8838 34.13 20.141 33.3755C20.6469 34.8932 21.6072 36.2822 23.0048 37.294C25.1741 38.8802 27.8836 39.1975 30.2501 38.4L20.0381 22.1603Z" fill="#00AE4D"/>
<path d="M20.8867 19.5194L38.3783 12.0684C36.389 9.43607 32.8907 8.21852 29.581 9.29031C28.7836 9.54754 28.0548 9.92481 27.4032 10.3964C27.8919 8.87017 27.9262 7.18103 27.3946 5.54335C26.5715 2.98821 24.5651 1.13616 22.1814 0.390198L20.8867 19.5194Z" fill="#00AE4D"/>
<path d="M21.4102 21.14L33.9115 35.4591C35.7978 32.7582 35.8664 29.0455 33.8257 26.2332C33.3284 25.5558 32.7454 24.9813 32.1023 24.5011C33.7057 24.4926 35.3177 23.9953 36.7153 22.9835C38.8931 21.4058 40.0335 18.9279 39.9992 16.4327L21.4102 21.14Z" fill="#00AE4D"/>
<path d="M52.383 10.426H55.97V8.607H50.173V18.943H51.261C53.267 18.943 54.933 18.875 56.837 18.518L56.667 16.699C55.171 16.971 53.845 17.056 52.383 17.09V10.426ZM61.036 6.788V12.823H59.625V7.094H57.534V21.731H59.625V14.625H61.036V22.462H63.161V6.788H61.036ZM73.7677 10.851V12.67H76.2157V18.229H78.4597V6.805H76.2157V10.851H73.7677ZM74.8047 14.455C72.3397 13.622 71.2687 11.701 71.2687 9.848V9.644H74.3117V7.859H65.8967V9.644H68.9737V9.865C68.9737 11.837 67.8517 13.894 65.2847 14.727L66.4237 16.512C68.2427 15.9 69.4667 14.659 70.1637 13.112C70.8437 14.523 71.9997 15.645 73.7167 16.206L74.8047 14.455ZM70.3847 20.405V17.277H68.1407V22.19H78.8167V20.405H70.3847ZM88.0463 20.779C85.9553 20.779 84.8843 20.422 84.8843 19.606C84.8843 18.79 85.9553 18.416 88.0463 18.416C90.1373 18.416 91.2083 18.79 91.2083 19.606C91.2083 20.422 90.1373 20.779 88.0463 20.779ZM88.0463 16.716C84.6633 16.716 82.6233 17.753 82.6233 19.606C82.6233 21.442 84.6633 22.479 88.0463 22.479C91.4293 22.479 93.4863 21.442 93.4863 19.606C93.4863 17.753 91.4293 16.716 88.0463 16.716ZM89.2193 14.166V12.874H93.5713V11.089H84.9693V9.253H93.4863V7.468H82.7423V12.874H86.9753V14.166H81.0253V15.951H95.1863V14.166H89.2193ZM106.796 10.46H100.591V8.981H106.796V10.46ZM108.989 7.264H98.398V12.177H108.989V7.264ZM110.791 14.778V13.01H96.647V14.778H102.58V15.764H98.262V17.413H106.864V18.229H98.279V22.343H109.482V20.66H100.506V19.776H109.074V15.764H104.824V14.778H110.791ZM116.009 11.973H122.707V14.166H116.009V11.973ZM120.48 18.824V15.951H124.917V7.774H122.707V10.205H116.009V7.774H113.782V15.951H118.236V18.824H112.286V20.643H126.464V18.824H120.48ZM141.456 8.76H136.101V6.958H133.857V8.76H128.536V10.545H141.456V8.76ZM131.97 14.268C131.97 13.384 133.024 12.942 134.962 12.942C136.934 12.942 137.988 13.384 137.988 14.268C137.988 15.169 136.934 15.577 134.962 15.577C133.024 15.577 131.97 15.169 131.97 14.268ZM136.101 19.079V17.277C138.702 17.022 140.283 15.951 140.283 14.268C140.283 12.347 138.243 11.208 134.962 11.208C131.715 11.208 129.658 12.347 129.658 14.268C129.658 15.951 131.256 17.039 133.857 17.277V19.079H127.924V20.898H142.119V19.079H136.101ZM156.908 6.805H154.783V18.518H156.908V6.805ZM151.655 18.059H153.746V7.077H151.655V10.375H149.785V12.194H151.655V18.059ZM151.196 14.421C149.241 13.469 148.493 11.701 148.493 9.865V7.859H146.317V9.865C146.317 11.735 145.501 13.758 143.359 14.812L144.583 16.512C145.96 15.866 146.878 14.744 147.439 13.418C147.932 14.591 148.748 15.56 149.972 16.138L151.196 14.421ZM148.612 20.405V17.158H146.368V22.19H157.299V20.405H148.612ZM162.143 14.217H166.631V12.466H162.143V9.916H167.158V8.114H159.916V18.943H161.191C163.826 18.943 165.832 18.892 168.093 18.535L167.889 16.733C165.968 17.039 164.251 17.124 162.143 17.141V14.217ZM170.099 6.788V12.313H167.413V14.115H170.099V22.496H172.343V6.788H170.099Z" fill="white"/>
<path d="M50.02 35H51.9376C54.1918 35 55.426 33.6026 55.426 31.2362C55.426 28.8596 54.1918 27.5132 51.8968 27.5132H50.02V35ZM50.9686 34.2248V28.2884H51.8152C53.5798 28.2884 54.4468 29.339 54.4468 31.2362C54.4468 33.1232 53.5798 34.2248 51.8152 34.2248H50.9686ZM58.2159 35.1326C58.8993 35.1326 59.5215 34.7756 60.0519 34.337H60.0825L60.1641 35H60.9291V31.5932C60.9291 30.2264 60.3579 29.3186 59.0115 29.3186C58.1241 29.3186 57.3387 29.7164 56.8287 30.0428L57.1959 30.6854C57.6345 30.3896 58.2159 30.0938 58.8585 30.0938C59.7663 30.0938 60.0009 30.7772 60.0009 31.4912C57.6447 31.7564 56.5941 32.3582 56.5941 33.5618C56.5941 34.5614 57.2877 35.1326 58.2159 35.1326ZM58.4811 34.388C57.9303 34.388 57.5019 34.133 57.5019 33.5006C57.5019 32.7866 58.1343 32.3276 60.0009 32.1032V33.6536C59.4603 34.133 59.0217 34.388 58.4811 34.388ZM64.9322 35.1326C65.687 35.1326 66.2786 34.8776 66.7682 34.5614L66.4316 33.9494C66.0236 34.2248 65.585 34.388 65.0444 34.388C63.9938 34.388 63.2696 33.6332 63.2084 32.45H66.9416C66.962 32.3174 66.9824 32.1236 66.9824 31.9196C66.9824 30.3386 66.1868 29.3186 64.7792 29.3186C63.494 29.3186 62.2802 30.4406 62.2802 32.2358C62.2802 34.0616 63.4634 35.1326 64.9322 35.1326ZM63.1982 31.7768C63.3104 30.6956 64.004 30.0632 64.7894 30.0632C65.6564 30.0632 66.1664 30.665 66.1664 31.7768H63.1982ZM67.775 37.4786C68.8664 37.4786 69.2846 36.7646 69.2846 35.6324V29.4614H68.3564V35.6324C68.3564 36.3056 68.2238 36.7238 67.673 36.7238C67.469 36.7238 67.2854 36.6728 67.1426 36.6218L66.959 37.3358C67.1528 37.4072 67.4384 37.4786 67.775 37.4786ZM68.8154 28.319C69.1724 28.319 69.4274 28.0742 69.4274 27.6968C69.4274 27.3398 69.1724 27.095 68.8154 27.095C68.4482 27.095 68.1932 27.3398 68.1932 27.6968C68.1932 28.0742 68.4482 28.319 68.8154 28.319ZM73.399 35.1326C74.1538 35.1326 74.7454 34.8776 75.235 34.5614L74.8984 33.9494C74.4904 34.2248 74.0518 34.388 73.5112 34.388C72.4606 34.388 71.7364 33.6332 71.6752 32.45H75.4084C75.4288 32.3174 75.4492 32.1236 75.4492 31.9196C75.4492 30.3386 74.6536 29.3186 73.246 29.3186C71.9608 29.3186 70.747 30.4406 70.747 32.2358C70.747 34.0616 71.9302 35.1326 73.399 35.1326ZM71.665 31.7768C71.7772 30.6956 72.4708 30.0632 73.2562 30.0632C74.1232 30.0632 74.6332 30.665 74.6332 31.7768H71.665ZM78.9652 35.1326C80.3218 35.1326 81.5356 34.0718 81.5356 32.2358C81.5356 30.3896 80.3218 29.3186 78.9652 29.3186C77.6086 29.3186 76.3948 30.3896 76.3948 32.2358C76.3948 34.0718 77.6086 35.1326 78.9652 35.1326ZM78.9652 34.3574C78.0064 34.3574 77.3638 33.5108 77.3638 32.2358C77.3638 30.9608 78.0064 30.0938 78.9652 30.0938C79.924 30.0938 80.5768 30.9608 80.5768 32.2358C80.5768 33.5108 79.924 34.3574 78.9652 34.3574ZM82.9988 35H83.927V30.9812C84.488 30.4202 84.8756 30.1346 85.4468 30.1346C86.1812 30.1346 86.4974 30.5732 86.4974 31.6136V35H87.4256V31.4912C87.4256 30.0734 86.8952 29.3186 85.7324 29.3186C84.9776 29.3186 84.4064 29.7368 83.876 30.257H83.8454L83.7638 29.4614H82.9988V35ZM91.597 35H92.4538V30.8588C92.4538 30.2162 92.3824 29.3084 92.3416 28.6556H92.3824L92.974 30.359L94.3918 34.2452H95.0242L96.442 30.359L97.0336 28.6556H97.0744C97.0234 29.3084 96.952 30.2162 96.952 30.8588V35H97.8394V27.5132H96.697L95.269 31.5218C95.0956 32.042 94.9324 32.5622 94.759 33.0824H94.708C94.5244 32.5622 94.351 32.042 94.1776 31.5218L92.7394 27.5132H91.597V35ZM102.027 35.1326C102.781 35.1326 103.373 34.8776 103.863 34.5614L103.526 33.9494C103.118 34.2248 102.679 34.388 102.139 34.388C101.088 34.388 100.364 33.6332 100.303 32.45H104.036C104.056 32.3174 104.077 32.1236 104.077 31.9196C104.077 30.3386 103.281 29.3186 101.874 29.3186C100.588 29.3186 99.3747 30.4406 99.3747 32.2358C99.3747 34.0616 100.558 35.1326 102.027 35.1326ZM100.293 31.7768C100.405 30.6956 101.098 30.0632 101.884 30.0632C102.751 30.0632 103.261 30.665 103.261 31.7768H100.293ZM107.075 35.1326C107.412 35.1326 107.779 35.0306 108.095 34.9286L107.912 34.235C107.728 34.3064 107.473 34.3778 107.279 34.3778C106.637 34.3778 106.423 33.9902 106.423 33.3068V30.2162H107.922V29.4614H106.423V27.9008H105.647L105.535 29.4614L104.668 29.5124V30.2162H105.494V33.2864C105.494 34.388 105.892 35.1326 107.075 35.1326ZM109.176 35H110.104V31.4402C110.471 30.4916 111.043 30.1652 111.502 30.1652C111.726 30.1652 111.859 30.1856 112.042 30.257L112.216 29.441C112.042 29.3492 111.869 29.3186 111.624 29.3186C111.002 29.3186 110.441 29.7674 110.053 30.4712H110.023L109.941 29.4614H109.176V35ZM115.173 35.1326C116.53 35.1326 117.744 34.0718 117.744 32.2358C117.744 30.3896 116.53 29.3186 115.173 29.3186C113.817 29.3186 112.603 30.3896 112.603 32.2358C112.603 34.0718 113.817 35.1326 115.173 35.1326ZM115.173 34.3574C114.214 34.3574 113.572 33.5108 113.572 32.2358C113.572 30.9608 114.214 30.0938 115.173 30.0938C116.132 30.0938 116.785 30.9608 116.785 32.2358C116.785 33.5108 116.132 34.3574 115.173 34.3574ZM119.207 37.3358H120.135V35.459L120.115 34.49C120.614 34.898 121.145 35.1326 121.645 35.1326C122.92 35.1326 124.052 34.0412 124.052 32.144C124.052 30.4406 123.277 29.3186 121.849 29.3186C121.206 29.3186 120.584 29.6858 120.084 30.0938H120.053L119.972 29.4614H119.207V37.3358ZM121.492 34.3574C121.124 34.3574 120.635 34.2044 120.135 33.776V30.869C120.676 30.3692 121.155 30.104 121.624 30.104C122.675 30.104 123.083 30.9302 123.083 32.1542C123.083 33.5312 122.41 34.3574 121.492 34.3574ZM127.684 35.1326C129.041 35.1326 130.255 34.0718 130.255 32.2358C130.255 30.3896 129.041 29.3186 127.684 29.3186C126.328 29.3186 125.114 30.3896 125.114 32.2358C125.114 34.0718 126.328 35.1326 127.684 35.1326ZM127.684 34.3574C126.725 34.3574 126.083 33.5108 126.083 32.2358C126.083 30.9608 126.725 30.0938 127.684 30.0938C128.643 30.0938 129.296 30.9608 129.296 32.2358C129.296 33.5108 128.643 34.3574 127.684 34.3574ZM132.697 35.1326C132.952 35.1326 133.105 35.102 133.237 35.051L133.105 34.337C133.003 34.3574 132.962 34.3574 132.911 34.3574C132.768 34.3574 132.646 34.2452 132.646 33.9596V26.8808H131.718V33.8984C131.718 34.6838 132.003 35.1326 132.697 35.1326ZM134.626 35H135.554V29.4614H134.626V35ZM135.095 28.319C135.463 28.319 135.718 28.0742 135.718 27.6968C135.718 27.3398 135.463 27.095 135.095 27.095C134.728 27.095 134.473 27.3398 134.473 27.6968C134.473 28.0742 134.728 28.319 135.095 28.319ZM139.179 35.1326C139.516 35.1326 139.883 35.0306 140.199 34.9286L140.016 34.235C139.832 34.3064 139.577 34.3778 139.383 34.3778C138.741 34.3778 138.527 33.9902 138.527 33.3068V30.2162H140.026V29.4614H138.527V27.9008H137.751L137.639 29.4614L136.772 29.5124V30.2162H137.598V33.2864C137.598 34.388 137.996 35.1326 139.179 35.1326ZM142.306 35.1326C142.99 35.1326 143.612 34.7756 144.142 34.337H144.173L144.254 35H145.019V31.5932C145.019 30.2264 144.448 29.3186 143.102 29.3186C142.214 29.3186 141.429 29.7164 140.919 30.0428L141.286 30.6854C141.725 30.3896 142.306 30.0938 142.949 30.0938C143.857 30.0938 144.091 30.7772 144.091 31.4912C141.735 31.7564 140.684 32.3582 140.684 33.5618C140.684 34.5614 141.378 35.1326 142.306 35.1326ZM142.571 34.388C142.021 34.388 141.592 34.133 141.592 33.5006C141.592 32.7866 142.225 32.3276 144.091 32.1032V33.6536C143.551 34.133 143.112 34.388 142.571 34.388ZM146.789 35H147.717V30.9812C148.278 30.4202 148.665 30.1346 149.237 30.1346C149.971 30.1346 150.287 30.5732 150.287 31.6136V35H151.215V31.4912C151.215 30.0734 150.685 29.3186 149.522 29.3186C148.767 29.3186 148.196 29.7368 147.666 30.257H147.635L147.554 29.4614H146.789V35ZM158.212 35.1326C159.181 35.1326 159.916 34.745 160.507 34.0616L159.987 33.47C159.508 33.9902 158.967 34.3064 158.253 34.3064C156.825 34.3064 155.927 33.1232 155.927 31.2362C155.927 29.3696 156.866 28.2068 158.284 28.2068C158.926 28.2068 159.426 28.5026 159.814 28.9208L160.324 28.3088C159.895 27.8294 159.181 27.3806 158.273 27.3806C156.376 27.3806 154.958 28.8494 154.958 31.2668C154.958 33.6944 156.356 35.1326 158.212 35.1326ZM161.81 35H162.738V29.4614H161.81V35ZM162.279 28.319C162.646 28.319 162.901 28.0742 162.901 27.6968C162.901 27.3398 162.646 27.095 162.279 27.095C161.912 27.095 161.657 27.3398 161.657 27.6968C161.657 28.0742 161.912 28.319 162.279 28.319ZM166.363 35.1326C166.699 35.1326 167.067 35.0306 167.383 34.9286L167.199 34.235C167.016 34.3064 166.761 34.3778 166.567 34.3778C165.924 34.3778 165.71 33.9902 165.71 33.3068V30.2162H167.209V29.4614H165.71V27.9008H164.935L164.823 29.4614L163.956 29.5124V30.2162H164.782V33.2864C164.782 34.388 165.18 35.1326 166.363 35.1326ZM168.555 37.3868C169.657 37.3868 170.238 36.5504 170.616 35.459L172.707 29.4614H171.799L170.81 32.5418C170.657 33.0314 170.493 33.5924 170.34 34.0922H170.289C170.116 33.5924 169.922 33.0212 169.759 32.5418L168.627 29.4614H167.658L169.881 35.0102L169.759 35.4284C169.535 36.1118 169.137 36.6218 168.504 36.6218C168.362 36.6218 168.198 36.5708 168.086 36.53L167.903 37.2746C168.076 37.346 168.29 37.3868 168.555 37.3868Z" fill="white"/>
</svg>
